<?xml version="1.0" encoding="UTF-8"?><svg xmlns="http://www.w3.org/2000/svg" xmlns:xlink="http://www.w3.org/1999/xlink" viewBox="0 0 626.72 328.38"><defs><style>.cls-1{fill:url(#linear-gradient-5);}.cls-1,.cls-2,.cls-3,.cls-4,.cls-5{mix-blend-mode:multiply;}.cls-1,.cls-2,.cls-3,.cls-4,.cls-5,.cls-6,.cls-7,.cls-8,.cls-9,.cls-10,.cls-11,.cls-12,.cls-13,.cls-14,.cls-15,.cls-16,.cls-17,.cls-18,.cls-19,.cls-20,.cls-21,.cls-22,.cls-23,.cls-24,.cls-25,.cls-26,.cls-27,.cls-28,.cls-29,.cls-30,.cls-31,.cls-32,.cls-33,.cls-34,.cls-35,.cls-36,.cls-37,.cls-38,.cls-39{stroke-width:0px;}.cls-2{fill:url(#linear-gradient-2);}.cls-3{fill:url(#linear-gradient-4);}.cls-4{fill:url(#linear-gradient-3);}.cls-40,.cls-6{fill:#facdb2;}.cls-41,.cls-39{fill:#051224;}.cls-42,.cls-31{fill:#fde9d2;}.cls-43,.cls-25{fill:#bbe2f8;}.cls-44,.cls-27{fill:#c0dec2;}.cls-45,.cls-17{fill:#17132c;}.cls-5{fill:url(#linear-gradient);}.cls-46{clip-path:url(#clippath-4);}.cls-47{clip-path:url(#clippath-3);}.cls-48{clip-path:url(#clippath-7);}.cls-49{clip-path:url(#clippath-6);}.cls-50{clip-path:url(#clippath-5);}.cls-51{isolation:isolate;}.cls-7{fill:#4e8dca;}.cls-8{fill:#2d2867;}.cls-9{fill:#61c1d8;}.cls-10{fill:#2c6f9d;}.cls-11{fill:#3a7c32;}.cls-12{fill:#3c7caa;}.cls-13{fill:#2f2c7d;}.cls-14{fill:#3e6429;}.cls-15{fill:#232248;}.cls-16{fill:#13100d;}.cls-18{fill:#e10b17;}.cls-19{fill:#df8607;}.cls-20{fill:#c96d14;}.cls-21{fill:#d86013;}.cls-22{fill:#d78b08;}.cls-23{fill:#d54a15;}.cls-24{fill:#d594c0;}.cls-26{fill:#be1818;}.cls-28{fill:#ce8d09;}.cls-29{fill:#9a5615;}.cls-30{fill:#871811;}.cls-32{fill:#9a1915;}.cls-33{fill:#f19001;}.cls-34{fill:#f5a506;}.cls-35{fill:#016f3d;}.cls-36{fill:#026291;}.cls-37{fill:#054021;}.cls-38{fill:#0369b2;}</style><clipPath id="clippath-3"><path class="cls-25" d="m545.42,256.14c-.11,0-.22.02-.32.03,0,0,0,0-.01-.01-5.01.25-10.58,2.28-12.13-.87.7,2.14,2.46,7.53,3.93,12.33,1.45,4.71,2.51,9.42,3.91,10.43,4.31,3.13,12.97.23,18.08,3.95,4.85,3.52,3.75,15.52,8.2,16.05,4.6.54,4.14-6.22,5.64-11.52,1.29-4.53,3.13-10.07,7.56-16.63-1.57-2.11-3.99-4.71-7.63-7.36-2.69-1.96-5.9-3.36-9.19-4.35-7.55-2.17-13.35-2.22-18.04-2.04Z"/></clipPath><clipPath id="clippath-4"><path class="cls-31" d="m572.74,286.45c-.03.11-.05.22-.07.32,0,0-.01,0-.02,0-1.31,4.84-1.1,10.77-4.58,11.27,2.25,0,7.92,0,12.94.07,4.93.08,9.73.52,11.13-.5,4.31-3.13,4.23-12.26,9.34-15.98,4.85-3.52,15.92,1.23,17.8-2.84,1.94-4.21-4.64-5.86-9.22-8.92-3.91-2.62-8.61-6.09-13.48-12.33-2.49.84-5.72,2.34-9.36,4.99-2.69,1.96-5.02,4.58-6.97,7.4-4.39,6.51-6.24,12.01-7.52,16.52Z"/></clipPath><clipPath id="clippath-5"><path class="cls-6" d="m565.8,220.79c-.04-.1-.09-.21-.13-.3,0,0,0,0,0-.01-1.79-4.69-5.44-9.36-2.92-11.81-1.82,1.33-6.4,4.66-10.51,7.55-4.03,2.83-8.18,5.3-8.71,6.95-1.65,5.07,3.79,12.4,1.83,18.42-1.85,5.7-13.6,8.36-12.73,12.76.9,4.54,7.19,2.01,12.7,1.8,4.71-.18,10.54-.14,18.16,2.05,1.52-2.15,3.25-5.25,4.64-9.54,1.03-3.17,1.37-6.65,1.29-10.08-.27-7.85-2.02-13.39-3.63-17.79Z"/></clipPath><clipPath id="clippath-6"><path class="cls-27" d="m610.01,269.83c.09.06.19.12.28.17,0,0,0,.01,0,.02,4.2,2.74,9.9,4.37,9.3,7.84.69-2.14,2.44-7.53,4.07-12.29,1.6-4.66,3.5-9.1,2.97-10.74-1.65-5.07-10.35-7.81-12.31-13.82-1.85-5.7,6.09-14.76,2.8-17.81-3.4-3.14-7,2.6-11.33,6.01-3.7,2.91-8.45,6.31-15.9,9.01.03,2.63.46,6.16,1.85,10.44,1.03,3.17,2.8,6.19,4.88,8.92,4.84,6.19,9.5,9.64,13.39,12.26Z"/></clipPath><clipPath id="clippath-7"><path class="cls-17" d="m605.72,229.25c.08-.07.17-.15.25-.21,0,0,.01,0,.02,0,3.91-3.15,7.22-8.07,10.33-6.43-1.83-1.32-6.41-4.65-10.43-7.67-3.94-2.96-7.57-6.14-9.3-6.14-5.33,0-10.63,7.43-16.95,7.43-5.99,0-12.16-10.35-16.07-8.16-4.04,2.26.31,7.46,2.21,12.64,1.62,4.42,3.39,9.99,3.66,17.9,2.51.78,6,1.47,10.5,1.47,3.33,0,6.75-.75,9.99-1.89,7.38-2.69,12.11-6.05,15.79-8.95Z"/></clipPath><linearGradient id="linear-gradient" x1="560.37" y1="213.53" x2="610.43" y2="235.82" gradientUnits="userSpaceOnUse"><stop offset=".09" stop-color="#35343f"/><stop offset=".12" stop-color="#3d3c47"/><stop offset=".18" stop-color="#56555e"/><stop offset=".25" stop-color="#7d7d84"/><stop offset=".33" stop-color="#b4b4b8"/><stop offset=".41" stop-color="#f9f9fa"/><stop offset=".42" stop-color="#fff"/></linearGradient><linearGradient id="linear-gradient-2" x1="536.83" y1="259.06" x2="573.5" y2="218.34" gradientUnits="userSpaceOnUse"><stop offset=".09" stop-color="#542419"/><stop offset=".12" stop-color="#5a2c21"/><stop offset=".17" stop-color="#6c433a"/><stop offset=".23" stop-color="#8a6962"/><stop offset=".3" stop-color="#b39e99"/><stop offset=".39" stop-color="#e7e0de"/><stop offset=".42" stop-color="#fff"/></linearGradient><linearGradient id="linear-gradient-3" x1="572.87" y1="295.52" x2="545.47" y2="248.06" gradientUnits="userSpaceOnUse"><stop offset=".09" stop-color="#203c47"/><stop offset=".12" stop-color="#28434e"/><stop offset=".17" stop-color="#415962"/><stop offset=".24" stop-color="#697b83"/><stop offset=".31" stop-color="#a0acb0"/><stop offset=".39" stop-color="#e5e9ea"/><stop offset=".42" stop-color="#fff"/></linearGradient><linearGradient id="linear-gradient-4" x1="618.67" y1="272.51" x2="565.07" y2="283.9" gradientUnits="userSpaceOnUse"><stop offset=".09" stop-color="#493e39"/><stop offset=".12" stop-color="#514641"/><stop offset=".18" stop-color="#675e5a"/><stop offset=".25" stop-color="#8c8582"/><stop offset=".33" stop-color="#bebab9"/><stop offset=".42" stop-color="#fff"/></linearGradient><linearGradient id="linear-gradient-5" x1="610.95" y1="221.84" x2="605.22" y2="276.34" gradientUnits="userSpaceOnUse"><stop offset=".09" stop-color="#354138"/><stop offset=".12" stop-color="#3d4940"/><stop offset=".18" stop-color="#566058"/><stop offset=".25" stop-color="#7e857f"/><stop offset=".33" stop-color="#b5b9b6"/><stop offset=".41" stop-color="#fafbfa"/><stop offset=".42" stop-color="#fff"/></linearGradient></defs><g class="cls-51"><g id="Pos_Primary"><path class="cls-41" d="m170.43,61.69l30.69,146.96h-44.36l-6.54-31.49h-53.52l-18.86,31.49H28.8l20.37-31.49-49.16-.04,144.88-26.25-4.55-21.18h0l-3.83-18.98-8.05,13.44,9.29,3.4-56.48-.03,42.57-65.83h46.6Zm277.35,0h-107.23c.54.61.84,1.18.98,1.55.57,1.47.63,2.57.81,3.68.36,2.15.79,2.46.53,4.1-.5,3.18-1.08,2.87-2.05,4.74-.99,1.91-1.61,4.07-1.78,4.71-.02.09.05.16.14.16.35-.02,1.06.07,1.1,1.14.04,1.42-1.6,4.21-2.07,5-.47.8-1.51,2.43-2.4,2.95-1.53.89-2,.38-2.22.83s-1.75,3.33-1.98,4.11c-.29.98-.43,2.19-.49,3.08-.01.14.07.27.21.32,3.07,1.2,11.09,4.05,13.02,7.32l-27.09,8.79c3.79-.45,7.95-.96,11.64-1.39,5.05-.58,13.21-1.49,15.84-1.46,2.59.02,5.81.69,6.76.82,3.18.43,6,.54,9.43,1.23,3.44.69,4.37,1.9,5.03,2.34.15.1.83.66.83.66,4.18-.3,10.65-.71,12.02-.82.7-.06,2.13-.13,2.41-.17,13.04-1.66,20.18-7.9,26.41-11.69,6.89-4.2,17.23-7.62,24.65-7.82,9.58-.25,16.47,1.37,21.05,5.54,4.59,4.17,6.38,9.69,4.53,18.02-1.78,8.03-4.34,11.73-10.27,15.42-5.92,3.68-12.47,4.86-20.19,4.15-12.87-1.18-24.37-9.22-28.91-11.83-3.91-2.25-9.28-4.63-15.32-5.17-.57-.05-2.32-.1-3.54,0-.41.03-5.33.37-8.43.6.35,1.17.42,2.09.41,2.31-.09,1.57-.97,2.33-1.93,2.21-.88-.11-3.09-1.76-3.73-3.12-.06-.13-.26-.19-.26.02,0,.25.03.5,0,.73-.05.43-.31,1.75-1.24,2.01-.78.22-1.98.02-2.84-.68-.25-.2-.63-.1-.74.2-.34.95-.53,1.53-2.34,1.17-1.24-.13-.98.35-1.77.5-1.92.37-2.86-.66-4.38-1.36-1.53-.71-1.02-2.16-2.54-2.42-.3-.05-.8-.15-1.09-.18.75,2.64,1.72,5.85,2.42,11.03.02.14-.08.28-.22.3l-1.56.18c-.15.02-.25.15-.22.29.39,2.01,1.36,5.77,1.57,8.48.38,4.92.32,6.37-.01,8.81-.02.17.12.32.29.28.49-.11,1.35-.35,1.8-.7.02-1.09.46-2.73.56-2.86.16-.22.33-.43.5-.62.13-.14.23-.3.28-.49l.4-1.42c.06-.21.15-.42.25-.62l2.13-3.83s.5-1.05,1.35-.81c0,0,1.41.76,1.37,2.23-.03,1.46-1.01,3.25-1.01,3.25l.9,1.44s1.63.53,3.21-.63c0,0,.45-.27,1.36-1.01-.39-1.07.55-2.42,3.13-1.93.89.38,3.41,2.38.26,4.46-.12.08-.06.26.09.26,3.44-.21,3.01,3.95.67,5.2-.2.11-.25.38-.12.57.35.5.88,1.4.78,2.23,0,0,.01,1.09-3.33,2.24,0,0-1.03.41-.62,1.17.41.15.85.3,1.37.47,0,0,3.03.69,2.44,2.37,0,0-.49,1.42-3.36.48,0,0-1.74.11-2.83-.09-.51.17-2.81.9-5.47,1.36-.62.11-1.12.45-1.55.93,0,0-.01.01-.02.02-1.86,2.13-7.54,5.07-10.08,5.1-2.82.03-3.18-2.15-5.23-4.3-3.98-4.17-4.66-9.38-5.27-14.55-.04-.34-.54-.34-.58,0-.71,6.06-1.07,11.52-4.42,14.51-2.05,1.83-5.26,3.26-10.46,4.49-19.74,4.68-40.98,16.8-38.58,19.56.95,1.09,3.18-1.08,7.08-2.88,14.72-6.77,33.77-8.12,39.9-7.64.45.04.79.39.84.84.08.73.3,2.07.94,4.34.53,1.9,1.15,5.29,3.16,7.17,3.67,3.43,3.16,4.7,2.3,9.3-.56,3.01,3.55,5.51,3.66,5.63h42.45l6.53-31.49h43.09c44.04,0,63.61-20.1,71.09-58.61,3.47-17.9,3.37-56.85-54.18-56.85Zm-189.27,146.96c.59-.65,1.28-1.38,2.09-2.22,1.85-1.9.4-6.72.76-8.57.47-2.43,4.66-3.71,5.32-6.08.89-3.23-5.5-2.68-2.45-6.1,1.9-2.14,4.69-1.39,4.5-3.49-.31-3.41,3.02-5.72,4.42-6.79,6.09-4.62,19.77-11.93,28.05-14.34,8.68-2.53-3.28-2.29-13.19,1.33-9,3.3,11.64-9.63,27.97-13.73,11.63-2.92-8.55-3.49-27.14,4.69-5.91,2.6-9.2,4.19-11.56,5.72-.1.06-.22-.04-.16-.14.92-1.88,2.85-5.1,2.29-8.44-.37-2.18-.14-4.6.76-6.27.71-1.33.28-4.93,1.06-6.79.06-.14.23-.21.37-.16l9.99,3.13,39.04-13.3-37.18,5.51-12.9-11.02c-1.82-1.93-3.72-9.54-1.81-12.38,2.72-4.04,5.5-7.13,6.69-8.18,1.75-1.54,7.13-2.2,9.77-3.53,2.95-1.49,5.3-.48,7.43-.82,2.06-.42,5.69-1.7,6.78-2.11.06-.02.09-.07.09-.13,0-.4-.07-1.9-.22-2.57-.58-2.72-.91-5.28-.73-7.14.22-2.32,2.24-4.34,2.34-5.88.1-1.54-1.02-3.12-.17-4.63.79-1.4,1-2.48,1.91-5.43-.23-1.75-1.34-2.37-.53-4.16.42-.94,1.15-2.28,1.46-2.95h-135.82l7.76,37.26h53.53l-5.89,28.6,40.33.02-82.34,14.92,38.95-.08-13.65,66.24h42.07Zm143.37-85.11c.89.46,1.98-.25,1.99-1.4.04-3.71.71-5.4,1.5-8.37.32-1.19-.69-2.15-1.7-1.6-5.99,3.24-10.37,4.59-12.97,5.17-.29.06-.77.41-.76.94,0,.53.3.83.58.9,2.53.62,6.42,1.81,11.36,4.36Z"/><path class="cls-41" d="m485.68,202.49h-2.43l.29-1.43h6.6l-.29,1.43h-2.41l-1.23,6.15h-1.75l1.22-6.15Zm13.94-1.43l-1.5,7.58h-1.65l.89-4.5-2.89,3.7h-.78l-1.56-3.74-.91,4.55h-1.65l1.52-7.58h1.43l1.89,4.72,3.7-4.72h1.5Z"/><path class="cls-41" d="m223.02,230.89l-3.89,18.37h29.28l-1.99,9.49h-29.19l-4.88,23.12h-11.23l12.67-60.38h44.13l-1.99,9.4h-32.9Zm42.32-9.4h11.23l-12.67,60.38h-11.23l12.67-60.38Zm74.27,0l-12.67,60.38h-9.24l-24.38-42.26-8.87,42.26h-11.14l12.67-60.38h9.24l24.47,42.26,8.78-42.26h11.14Zm42.91,46.4h-30.4l-8.86,13.97h-12l39.87-60.38h11.14l14.45,60.38h-11.14l-3.06-13.97Zm-1.99-8.8l-5.88-26.56-16.92,26.56h22.8Zm33.18-37.61h11.23l-10.68,50.89h31.61l-1.99,9.49h-42.84l12.67-60.38Zm43.31,59.26c-4.25-1.32-7.57-3.02-9.97-5.09l4.83-8.8c2.51,2.01,5.51,3.61,8.98,4.79,3.47,1.18,7.02,1.77,10.65,1.77,4.43,0,7.97-.76,10.6-2.29,2.63-1.52,3.96-3.61,3.99-6.25.01-1.49-.51-2.75-1.56-3.75-1.06-1.01-2.37-1.82-3.95-2.46-1.58-.63-3.77-1.35-6.59-2.16-3.9-1.15-7.06-2.26-9.47-3.32-2.41-1.06-4.47-2.66-6.17-4.79-1.71-2.13-2.54-4.89-2.51-8.28.04-3.91,1.18-7.33,3.42-10.26,2.24-2.93,5.36-5.2,9.35-6.81,3.99-1.61,8.57-2.41,13.75-2.41,3.91,0,7.62.45,11.13,1.34,3.5.89,6.51,2.14,9.03,3.75l-4.49,8.88c-2.23-1.49-4.75-2.64-7.57-3.45-2.81-.8-5.75-1.21-8.8-1.21-4.49,0-8.05.82-10.69,2.46-2.64,1.64-3.97,3.81-3.99,6.51-.01,1.55.52,2.85,1.6,3.88,1.08,1.04,2.4,1.85,3.95,2.46,1.55.6,3.82,1.37,6.8,2.29,3.79,1.09,6.89,2.16,9.3,3.19,2.41,1.04,4.45,2.56,6.13,4.57,1.68,2.01,2.5,4.63,2.47,7.85-.04,3.97-1.18,7.42-3.42,10.35-2.24,2.93-5.4,5.2-9.48,6.81-4.08,1.61-8.73,2.42-13.97,2.42-4.66,0-9.12-.66-13.37-1.98Z"/><path class="cls-39" d="m178.17.82l-9.6,47.98h-9.12l-17.89-30.02-6.03,30.02h-10.97L134.17.82h9.18l17.89,30.09,5.96-30.09h10.97Z"/><path class="cls-39" d="m193.32,9.73l-2.06,10.42h22.28l-1.71,8.64h-22.35l-2.19,11.1h26.18l-1.85,8.91h-37.15L184.07.82h36.26l-1.85,8.91h-25.16Z"/><path class="cls-39" d="m251.03,24.61l13.16,24.2h-12l-8.5-16.31-14.53,16.31h-13.3l22.96-24.88L226.43.82h11.86l8.02,15.42,13.98-15.42h12.61l-21.87,23.79Z"/><path class="cls-39" d="m289.97,9.87h-15.35l1.85-9.05h41.81l-1.85,9.05h-15.29l-7.81,38.93h-11.1l7.75-38.93Z"/><path class="cls-39" d="m371.47,24.06h10.14l-3.98,19.74c-4.87,3.7-11.45,5.83-18.37,5.83-14.53,0-23.71-8.43-23.71-20.84,0-16.38,11.99-28.79,30.16-28.79,9.18,0,15.9,2.95,20.01,8.36l-7.95,6.44c-3.22-3.84-7.2-5.35-12.54-5.35-11.24,0-18.44,8.09-18.44,18.64,0,7.2,4.8,12.06,13.91,12.06,2.81,0,5.42-.55,7.95-1.71l2.81-14.39Z"/><path class="cls-39" d="m401.63,9.73l-2.06,10.42h22.28l-1.71,8.64h-22.35l-2.19,11.1h26.18l-1.85,8.91h-37.15L392.37.82h36.26l-1.85,8.91h-25.16Z"/><path class="cls-39" d="m479.63.82l-9.6,47.98h-9.12l-17.89-30.02-6.03,30.02h-10.97L435.62.82h9.18l17.89,30.09,5.96-30.09h10.97Z"/><path class="cls-43" d="m545.42,256.14c-.11,0-.22.02-.32.03,0,0,0,0-.01-.01-5.01.25-10.58,2.28-12.13-.87.7,2.14,2.46,7.53,3.93,12.33,1.45,4.71,2.51,9.42,3.91,10.43,4.31,3.13,12.97.23,18.08,3.95,4.85,3.52,3.75,15.52,8.2,16.05,4.6.54,4.14-6.22,5.64-11.52,1.29-4.53,3.13-10.07,7.56-16.63-1.57-2.11-3.99-4.71-7.63-7.36-2.69-1.96-5.9-3.36-9.19-4.35-7.55-2.17-13.35-2.22-18.04-2.04Z"/><g class="cls-47"><polygon class="cls-36" points="545.28 268.69 545.28 273.48 546.44 274.64 546.99 274.64 546.99 267.53 546.44 267.53 545.28 268.69"/><rect class="cls-36" x="547.21" y="297.35" width="3.29" height="7.1"/><polygon class="cls-36" points="545.28 276.15 545.28 280.93 546.44 282.09 546.99 282.09 546.99 274.99 546.44 274.99 545.28 276.15"/><polygon class="cls-36" points="543.27 289.89 543.27 297 543.78 297 544.94 295.84 544.94 291.05 543.78 289.89 543.27 289.89"/><polygon class="cls-36" points="545.28 253.79 545.28 258.57 546.44 259.73 546.99 259.73 546.99 252.63 546.44 252.63 545.28 253.79"/><rect class="cls-36" x="547.21" y="274.99" width="3.29" height="7.11"/><rect class="cls-36" x="547.21" y="289.89" width="3.29" height="7.1"/><rect class="cls-36" x="547.21" y="267.53" width="3.29" height="7.11"/><rect class="cls-36" x="547.21" y="282.44" width="3.29" height="7.11"/><polygon class="cls-36" points="543.27 282.44 543.27 289.55 543.78 289.55 544.94 288.39 544.94 283.6 543.78 282.44 543.27 282.44"/><polygon class="cls-36" points="545.28 283.6 545.28 288.39 546.44 289.55 546.99 289.55 546.99 282.44 546.44 282.44 545.28 283.6"/><polygon class="cls-36" points="543.27 267.53 543.27 274.64 543.78 274.64 544.94 273.48 544.94 268.69 543.78 267.53 543.27 267.53"/><rect class="cls-36" x="547.21" y="260.08" width="3.29" height="7.11"/><polygon class="cls-36" points="543.27 260.08 543.27 267.19 543.78 267.19 544.94 266.03 544.94 261.24 543.78 260.08 543.27 260.08"/><polygon class="cls-36" points="543.27 274.99 543.27 282.09 543.78 282.09 544.94 280.93 544.94 276.15 543.78 274.99 543.27 274.99"/><polygon class="cls-36" points="543.27 252.63 543.27 259.73 543.78 259.73 544.94 258.57 544.94 253.79 543.78 252.63 543.27 252.63"/><polygon class="cls-36" points="545.28 291.05 545.28 295.84 546.44 297 546.99 297 546.99 289.89 546.44 289.89 545.28 291.05"/><polygon class="cls-36" points="545.28 298.51 545.28 303.29 546.44 304.45 546.99 304.45 546.99 297.35 546.44 297.35 545.28 298.51"/><polygon class="cls-36" points="545.28 261.24 545.28 266.03 546.44 267.19 546.99 267.19 546.99 260.08 546.44 260.08 545.28 261.24"/><polygon class="cls-36" points="552.73 261.24 552.73 266.03 553.89 267.19 554.44 267.19 554.44 260.08 553.89 260.08 552.73 261.24"/><polygon class="cls-36" points="552.73 253.79 552.73 258.57 553.89 259.73 554.44 259.73 554.44 252.63 553.89 252.63 552.73 253.79"/><polygon class="cls-36" points="552.73 276.15 552.73 280.93 553.89 282.09 554.44 282.09 554.44 274.99 553.89 274.99 552.73 276.15"/><polygon class="cls-36" points="552.73 283.6 552.73 288.39 553.89 289.55 554.44 289.55 554.44 282.44 553.89 282.44 552.73 283.6"/><rect class="cls-36" x="554.66" y="289.89" width="3.29" height="7.1"/><rect class="cls-36" x="554.66" y="297.35" width="3.29" height="7.1"/><rect class="cls-36" x="554.66" y="282.44" width="3.29" height="7.11"/><polygon class="cls-36" points="552.73 291.05 552.73 295.84 553.89 297 554.44 297 554.44 289.89 553.89 289.89 552.73 291.05"/><polygon class="cls-36" points="550.72 252.63 550.72 259.73 551.23 259.73 552.39 258.57 552.39 253.79 551.23 252.63 550.72 252.63"/><polygon class="cls-36" points="550.72 282.44 550.72 289.55 551.23 289.55 552.39 288.39 552.39 283.6 551.23 282.44 550.72 282.44"/><polygon class="cls-36" points="550.72 289.89 550.72 297 551.23 297 552.39 295.84 552.39 291.05 551.23 289.89 550.72 289.89"/><polygon class="cls-36" points="550.72 297.35 550.72 304.45 551.23 304.45 552.39 303.29 552.39 298.51 551.23 297.35 550.72 297.35"/><polygon class="cls-36" points="550.72 274.99 550.72 282.09 551.23 282.09 552.39 280.93 552.39 276.15 551.23 274.99 550.72 274.99"/><polygon class="cls-36" points="552.73 298.51 552.73 303.29 553.89 304.45 554.44 304.45 554.44 297.35 553.89 297.35 552.73 298.51"/><polygon class="cls-36" points="550.72 267.53 550.72 274.64 551.23 274.64 552.39 273.48 552.39 268.69 551.23 267.53 550.72 267.53"/><rect class="cls-36" x="547.21" y="252.63" width="3.29" height="7.11"/><polygon class="cls-36" points="550.72 260.08 550.72 267.19 551.23 267.19 552.39 266.03 552.39 261.24 551.23 260.08 550.72 260.08"/><rect class="cls-36" x="554.66" y="274.99" width="3.29" height="7.11"/><rect class="cls-36" x="532.32" y="267.53" width="3.29" height="7.11"/><rect class="cls-36" x="532.32" y="274.99" width="3.29" height="7.11"/><polygon class="cls-36" points="543.27 297.35 543.27 304.45 543.78 304.45 544.94 303.29 544.94 298.51 543.78 297.35 543.27 297.35"/><rect class="cls-36" x="532.32" y="282.44" width="3.29" height="7.11"/><rect class="cls-36" x="532.32" y="252.63" width="3.29" height="7.11"/><polygon class="cls-36" points="535.83 289.89 535.83 297 536.33 297 537.49 295.84 537.49 291.05 536.33 289.89 535.83 289.89"/><polygon class="cls-36" points="535.83 282.44 535.83 289.55 536.33 289.55 537.49 288.39 537.49 283.6 536.33 282.44 535.83 282.44"/><polygon class="cls-36" points="535.83 297.35 535.83 304.45 536.33 304.45 537.49 303.29 537.49 298.51 536.33 297.35 535.83 297.35"/><rect class="cls-36" x="532.32" y="289.89" width="3.29" height="7.1"/><rect class="cls-36" x="532.32" y="297.35" width="3.29" height="7.1"/><polygon class="cls-36" points="530.39 283.6 530.39 288.39 531.55 289.55 532.1 289.55 532.1 282.44 531.55 282.44 530.39 283.6"/><polygon class="cls-36" points="530.39 291.05 530.39 295.84 531.55 297 532.1 297 532.1 289.89 531.55 289.89 530.39 291.05"/><polygon class="cls-36" points="530.39 298.51 530.39 303.29 531.55 304.45 532.1 304.45 532.1 297.35 531.55 297.35 530.39 298.51"/><polygon class="cls-36" points="530.39 276.15 530.39 280.93 531.55 282.09 532.1 282.09 532.1 274.99 531.55 274.99 530.39 276.15"/><polygon class="cls-36" points="530.39 268.69 530.39 273.48 531.55 274.64 532.1 274.64 532.1 267.53 531.55 267.53 530.39 268.69"/><polygon class="cls-36" points="530.39 253.79 530.39 258.57 531.55 259.73 532.1 259.73 532.1 252.63 531.55 252.63 530.39 253.79"/><polygon class="cls-36" points="535.83 274.99 535.83 282.09 536.33 282.09 537.49 280.93 537.49 276.15 536.33 274.99 535.83 274.99"/><polygon class="cls-36" points="530.39 261.24 530.39 266.03 531.55 267.19 532.1 267.19 532.1 260.08 531.55 260.08 530.39 261.24"/><rect class="cls-36" x="532.32" y="260.08" width="3.29" height="7.11"/><rect class="cls-36" x="539.76" y="274.99" width="3.29" height="7.11"/><rect class="cls-36" x="539.76" y="282.44" width="3.29" height="7.11"/><rect class="cls-36" x="539.76" y="289.89" width="3.29" height="7.1"/><rect class="cls-36" x="539.76" y="297.35" width="3.29" height="7.1"/><rect class="cls-36" x="539.76" y="252.63" width="3.29" height="7.11"/><polygon class="cls-36" points="537.83 253.79 537.83 258.57 538.99 259.73 539.54 259.73 539.54 252.63 538.99 252.63 537.83 253.79"/><polygon class="cls-36" points="535.83 267.53 535.83 274.64 536.33 274.64 537.49 273.48 537.49 268.69 536.33 267.53 535.83 267.53"/><rect class="cls-36" x="539.76" y="267.53" width="3.29" height="7.11"/><rect class="cls-36" x="539.76" y="260.08" width="3.29" height="7.11"/><polygon class="cls-36" points="535.83 252.63 535.83 259.73 536.33 259.73 537.49 258.57 537.49 253.79 536.33 252.63 535.83 252.63"/><polygon class="cls-36" points="537.83 291.05 537.83 295.84 538.99 297 539.54 297 539.54 289.89 538.99 289.89 537.83 291.05"/><polygon class="cls-36" points="537.83 298.51 537.83 303.29 538.99 304.45 539.54 304.45 539.54 297.35 538.99 297.35 537.83 298.51"/><polygon class="cls-36" points="537.83 261.24 537.83 266.03 538.99 267.19 539.54 267.19 539.54 260.08 538.99 260.08 537.83 261.24"/><polygon class="cls-36" points="535.83 260.08 535.83 267.19 536.33 267.19 537.49 266.03 537.49 261.24 536.33 260.08 535.83 260.08"/><polygon class="cls-36" points="537.83 268.69 537.83 273.48 538.99 274.64 539.54 274.64 539.54 267.53 538.99 267.53 537.83 268.69"/><polygon class="cls-36" points="537.83 283.6 537.83 288.39 538.99 289.55 539.54 289.55 539.54 282.44 538.99 282.44 537.83 283.6"/><polygon class="cls-36" points="537.83 276.15 537.83 280.93 538.99 282.09 539.54 282.09 539.54 274.99 538.99 274.99 537.83 276.15"/><polygon class="cls-36" points="552.73 268.69 552.73 273.48 553.89 274.64 554.44 274.64 554.44 267.53 553.89 267.53 552.73 268.69"/><polygon class="cls-36" points="573.06 274.99 573.06 282.09 573.57 282.09 574.73 280.93 574.73 276.15 573.57 274.99 573.06 274.99"/><polygon class="cls-36" points="573.06 267.53 573.06 274.64 573.57 274.64 574.73 273.48 574.73 268.69 573.57 267.53 573.06 267.53"/><polygon class="cls-36" points="573.06 289.89 573.06 297 573.57 297 574.73 295.84 574.73 291.05 573.57 289.89 573.06 289.89"/><polygon class="cls-36" points="573.06 260.08 573.06 267.19 573.57 267.19 574.73 266.03 574.73 261.24 573.57 260.08 573.06 260.08"/><polygon class="cls-36" points="575.07 276.15 575.07 280.93 576.23 282.09 576.78 282.09 576.78 274.99 576.23 274.99 575.07 276.15"/><polygon class="cls-36" points="575.07 283.6 575.07 288.39 576.23 289.55 576.78 289.55 576.78 282.44 576.23 282.44 575.07 283.6"/><polygon class="cls-36" points="573.06 252.63 573.06 259.73 573.57 259.73 574.73 258.57 574.73 253.79 573.57 252.63 573.06 252.63"/><polygon class="cls-36" points="575.07 291.05 575.07 295.84 576.23 297 576.78 297 576.78 289.89 576.23 289.89 575.07 291.05"/><polygon class="cls-36" points="575.07 298.51 575.07 303.29 576.23 304.45 576.78 304.45 576.78 297.35 576.23 297.35 575.07 298.51"/><polygon class="cls-36" points="573.06 282.44 573.06 289.55 573.57 289.55 574.73 288.39 574.73 283.6 573.57 282.44 573.06 282.44"/><rect class="cls-36" x="569.55" y="274.99" width="3.29" height="7.11"/><polygon class="cls-36" points="573.06 297.35 573.06 304.45 573.57 304.45 574.73 303.29 574.73 298.51 573.57 297.35 573.06 297.35"/><rect class="cls-36" x="569.55" y="289.89" width="3.29" height="7.1"/><rect class="cls-36" x="569.55" y="297.35" width="3.29" height="7.1"/><rect class="cls-36" x="569.55" y="282.44" width="3.29" height="7.11"/><rect class="cls-36" x="569.55" y="267.53" width="3.29" height="7.11"/><polygon class="cls-36" points="567.62 253.79 567.62 258.57 568.78 259.73 569.33 259.73 569.33 252.63 568.78 252.63 567.62 253.79"/><rect class="cls-36" x="569.55" y="260.08" width="3.29" height="7.11"/><rect class="cls-36" x="569.55" y="252.63" width="3.29" height="7.11"/><polygon class="cls-36" points="580.51 282.44 580.51 289.55 581.02 289.55 582.18 288.39 582.18 283.6 581.02 282.44 580.51 282.44"/><polygon class="cls-36" points="580.51 289.89 580.51 297 581.02 297 582.18 295.84 582.18 291.05 581.02 289.89 580.51 289.89"/><polygon class="cls-36" points="580.51 274.99 580.51 282.09 581.02 282.09 582.18 280.93 582.18 276.15 581.02 274.99 580.51 274.99"/><rect class="cls-36" x="577" y="252.63" width="3.29" height="7.11"/><polygon class="cls-36" points="580.51 297.35 580.51 304.45 581.02 304.45 582.18 303.29 582.18 298.51 581.02 297.35 580.51 297.35"/><polygon class="cls-36" points="581.02 252.63 580.51 252.63 580.51 259.73 581.02 259.73 582.18 258.57 582.18 253.79 581.02 252.63"/><polygon class="cls-36" points="580.51 267.53 580.51 274.64 581.02 274.64 582.18 273.48 582.18 268.69 581.02 267.53 580.51 267.53"/><polygon class="cls-36" points="580.51 260.08 580.51 267.19 581.02 267.19 582.18 266.03 582.18 261.24 581.02 260.08 580.51 260.08"/><rect class="cls-36" x="577" y="289.89" width="3.29" height="7.1"/><polygon class="cls-36" points="575.07 268.69 575.07 273.48 576.23 274.64 576.78 274.64 576.78 267.53 576.23 267.53 575.07 268.69"/><rect class="cls-36" x="577" y="260.08" width="3.29" height="7.11"/><polygon class="cls-36" points="575.07 253.79 575.07 258.57 576.23 259.73 576.78 259.73 576.78 252.63 576.23 252.63 575.07 253.79"/><polygon class="cls-36" points="575.07 261.24 575.07 266.03 576.23 267.19 576.78 267.19 576.78 260.08 576.23 260.08 575.07 261.24"/><rect class="cls-36" x="577" y="297.35" width="3.29" height="7.1"/><rect class="cls-36" x="577" y="282.44" width="3.29" height="7.11"/><rect class="cls-36" x="577" y="267.53" width="3.29" height="7.11"/><rect class="cls-36" x="577" y="274.99" width="3.29" height="7.11"/><polygon class="cls-36" points="567.62 291.05 567.62 295.84 568.78 297 569.33 297 569.33 289.89 568.78 289.89 567.62 291.05"/><polygon class="cls-36" points="560.18 291.05 560.18 295.84 561.34 297 561.88 297 561.88 289.89 561.34 289.89 560.18 291.05"/><polygon class="cls-36" points="560.18 276.15 560.18 280.93 561.34 282.09 561.88 282.09 561.88 274.99 561.34 274.99 560.18 276.15"/><rect class="cls-36" x="562.1" y="289.89" width="3.29" height="7.1"/><polygon class="cls-36" points="560.18 298.51 560.18 303.29 561.34 304.45 561.88 304.45 561.88 297.35 561.34 297.35 560.18 298.51"/><polygon class="cls-36" points="560.18 261.24 560.18 266.03 561.34 267.19 561.88 267.19 561.88 260.08 561.34 260.08 560.18 261.24"/><polygon class="cls-36" points="560.18 253.79 560.18 258.57 561.34 259.73 561.88 259.73 561.88 252.63 561.34 252.63 560.18 253.79"/><rect class="cls-36" x="562.1" y="297.35" width="3.29" height="7.1"/><polygon class="cls-36" points="560.18 268.69 560.18 273.48 561.34 274.64 561.88 274.64 561.88 267.53 561.34 267.53 560.18 268.69"/><polygon class="cls-36" points="558.17 252.63 558.17 259.73 558.67 259.73 559.83 258.57 559.83 253.79 558.67 252.63 558.17 252.63"/><polygon class="cls-36" points="560.18 283.6 560.18 288.39 561.34 289.55 561.88 289.55 561.88 282.44 561.34 282.44 560.18 283.6"/><polygon class="cls-36" points="558.17 297.35 558.17 304.45 558.67 304.45 559.83 303.29 559.83 298.51 558.67 297.35 558.17 297.35"/><rect class="cls-36" x="554.66" y="252.63" width="3.29" height="7.11"/><polygon class="cls-36" points="558.17 260.08 558.17 267.19 558.67 267.19 559.83 266.03 559.83 261.24 558.67 260.08 558.17 260.08"/><polygon class="cls-36" points="558.17 289.89 558.17 297 558.67 297 559.83 295.84 559.83 291.05 558.67 289.89 558.17 289.89"/><rect class="cls-36" x="554.66" y="260.08" width="3.29" height="7.11"/><polygon class="cls-36" points="558.17 267.53 558.17 274.64 558.67 274.64 559.83 273.48 559.83 268.69 558.67 267.53 558.17 267.53"/><polygon class="cls-36" points="558.17 282.44 558.17 289.55 558.67 289.55 559.83 288.39 559.83 283.6 558.67 282.44 558.17 282.44"/><polygon class="cls-36" points="558.17 274.99 558.17 282.09 558.67 282.09 559.83 280.93 559.83 276.15 558.67 274.99 558.17 274.99"/><rect class="cls-36" x="562.1" y="267.53" width="3.29" height="7.11"/><polygon class="cls-36" points="567.62 298.51 567.62 303.29 568.78 304.45 569.33 304.45 569.33 297.35 568.78 297.35 567.62 298.51"/><rect class="cls-36" x="562.1" y="282.44" width="3.29" height="7.11"/><polygon class="cls-36" points="565.62 260.08 565.62 267.19 566.12 267.19 567.28 266.03 567.28 261.24 566.12 260.08 565.62 260.08"/><rect class="cls-36" x="554.66" y="267.53" width="3.29" height="7.11"/><polygon class="cls-36" points="567.62 276.15 567.62 280.93 568.78 282.09 569.33 282.09 569.33 274.99 568.78 274.99 567.62 276.15"/><polygon class="cls-36" points="567.62 268.69 567.62 273.48 568.78 274.64 569.33 274.64 569.33 267.53 568.78 267.53 567.62 268.69"/><polygon class="cls-36" points="565.62 267.53 565.62 274.64 566.12 274.64 567.28 273.48 567.28 268.69 566.12 267.53 565.62 267.53"/><polygon class="cls-36" points="567.62 283.6 567.62 288.39 568.78 289.55 569.33 289.55 569.33 282.44 568.78 282.44 567.62 283.6"/><polygon class="cls-36" points="565.62 252.63 565.62 259.73 566.12 259.73 567.28 258.57 567.28 253.79 566.12 252.63 565.62 252.63"/><polygon class="cls-36" points="567.62 261.24 567.62 266.03 568.78 267.19 569.33 267.19 569.33 260.08 568.78 260.08 567.62 261.24"/><rect class="cls-36" x="562.1" y="260.08" width="3.29" height="7.11"/><rect class="cls-36" x="562.1" y="252.63" width="3.29" height="7.11"/><rect class="cls-36" x="562.1" y="274.99" width="3.29" height="7.11"/><polygon class="cls-36" points="565.62 274.99 565.62 282.09 566.12 282.09 567.28 280.93 567.28 276.15 566.12 274.99 565.62 274.99"/><polygon class="cls-36" points="565.62 282.44 565.62 289.55 566.12 289.55 567.28 288.39 567.28 283.6 566.12 282.44 565.62 282.44"/><polygon class="cls-36" points="565.62 297.35 565.62 304.45 566.12 304.45 567.28 303.29 567.28 298.51 566.12 297.35 565.62 297.35"/><polygon class="cls-36" points="565.62 289.89 565.62 297 566.12 297 567.28 295.84 567.28 291.05 566.12 289.89 565.62 289.89"/></g><path class="cls-42" d="m572.74,286.45c-.03.11-.05.22-.07.32,0,0-.01,0-.02,0-1.31,4.84-1.1,10.77-4.58,11.27,2.25,0,7.92,0,12.94.07,4.93.08,9.73.52,11.13-.5,4.31-3.13,4.23-12.26,9.34-15.98,4.85-3.52,15.92,1.23,17.8-2.84,1.94-4.21-4.64-5.86-9.22-8.92-3.91-2.62-8.61-6.09-13.48-12.33-2.49.84-5.72,2.34-9.36,4.99-2.69,1.96-5.02,4.58-6.97,7.4-4.39,6.51-6.24,12.01-7.52,16.52Z"/><g class="cls-46"><path class="cls-12" d="m584.66,292.27c.16-.75,1.58-7.39,1.57-8.3-.01-1.1-1.37-2.89-1.54-3.05-.13-.12-.34-.11-.47.02-.12.14-.11.35.02.47.22.21,1.29,1.77,1.33,2.53,0,.01,0,.02,0,.03,0,.63-.92,5.2-1.55,8.13-.09.29-1.08,3.7-1.37,6.29.22,0,.45,0,.67,0,.3-2.58,1.33-6.07,1.34-6.12v-.03Z"/><path class="cls-17" d="m586.35,290.64c.5-2.17,1.18-5.13,1.1-6.36-.1-1.58-.3-3.32-1.39-3.9-.9-.47-2.8-.42-3.82-.38-.12,0-.22,0-.3,0-.79.01-3.45,1.04-4.39,1.9-.16.14-.37.32-.61.53-1.18,1.01-2.96,2.53-3.59,3.89-.31.66-.71,1.24-1.11,1.73-.09.44-.17.87-.25,1.29.59-.61,1.4-1.57,1.95-2.74.57-1.23,2.36-2.75,3.42-3.66.25-.21.46-.39.62-.54.85-.77,3.37-1.72,3.96-1.73.08,0,.19,0,.31,0,.82-.03,2.75-.08,3.49.31.85.45.97,2.41,1.03,3.35,0,.01,0,.02,0,.03.06,1.16-.63,4.15-1.09,6.13-.13.56-.24,1.03-.32,1.41-.28,1.34-.67,4.28-.89,6.52.22,0,.45,0,.66,0,.22-2.21.6-5.08.87-6.38.08-.37.19-.84.31-1.4Z"/><path class="cls-19" d="m575.59,282.76c1.86-1.13,4.04-2.54,4.06-2.55.15-.1.2-.31.1-.46-.1-.16-.3-.2-.45-.1-.02.01-2.19,1.41-4.05,2.54-.7.42-1.44,1.26-2.13,2.19-.17.62-.32,1.23-.46,1.82.88-1.35,1.98-2.86,2.93-3.44Z"/><path class="cls-36" d="m579.17,279.45c1.81-.31,4.94-.36,4.97-.36.02,0,2.89.04,3.26,1.62.45,1.91.73,5.21.53,6.21-.23,1.08-1.85,6.73-1.86,6.78-.05.18.05.36.22.41.17.05.36-.05.41-.23.07-.23,1.64-5.73,1.88-6.83.25-1.17-.09-4.66-.53-6.5-.5-2.08-3.77-2.13-3.91-2.13-.14,0-3.22.05-5.08.37-1.43.24-3.76,1.61-4.9,2.32-.13.36-.26.72-.38,1.08.05-.05.09-.1.11-.12.37-.24,3.6-2.33,5.28-2.62Z"/><path class="cls-7" d="m589.79,286.18c0-.32-.02-.67-.02-1.04-.04-2.37-.09-5.31-1.19-6.47-1.23-1.29-3.07-1.92-5.16-1.77-2.02.14-5.06.83-5.93,1.08-.44.13-1.52.66-2.58,1.23-.14.33-.27.65-.4.98,1.2-.67,2.66-1.42,3.16-1.56.85-.24,3.83-.92,5.8-1.06,1.92-.14,3.53.41,4.64,1.57.93.97.97,3.89,1.01,6.02,0,.37.01.72.02,1.05.05,1.73-.69,4.54-2.2,8.35-.5,1.27-.87,2.55-1.11,3.86.23,0,.45,0,.67,0,.23-1.23.58-2.43,1.05-3.61,1.55-3.9,2.31-6.8,2.25-8.62Z"/><path class="cls-30" d="m590.24,291.63c.23-1.54.48-3.12.77-4.07.63-2.03-.13-6.73-.38-8.13-.39-2.2-1.99-3.03-3.16-3.45-1.19-.43-4.89-.03-6.22.11-1.07.12-3.71.8-5.58,1.41-.13.28-.26.55-.39.83,1.86-.63,4.95-1.46,6.04-1.58,1.92-.21,5.02-.48,5.92-.15,1.1.4,2.41,1.1,2.74,2.94.49,2.79.86,6.31.4,7.81-.31.99-.55,2.6-.79,4.16-.2,1.29-.38,2.51-.57,3.18-.2.71-.6,2.21-.98,3.71.24,0,.47,0,.68,0,.37-1.43.74-2.84.94-3.52.2-.72.39-1.96.59-3.27Z"/><path class="cls-20" d="m588.81,293.93c.05-.18-.05-.36-.23-.41-.18-.05-.36.05-.41.23,0,0-.24.87-.53,1.6-.15.39-.52,1.85-.8,3.06.23,0,.46,0,.68,0,.26-1.12.58-2.43.73-2.82.3-.76.54-1.63.55-1.67Z"/><path class="cls-35" d="m592.12,289.42v-.04c.03-.28.56-6.79.19-8.35-.36-1.54-1.08-4.55-2.31-5.4-1.13-.78-4.07-1.87-5.35-1.93-.81-.04-2.61.31-3.92.51-.61.09-1.14.17-1.32.18-.26.01-1.21.12-2.29.26-.13.24-.26.48-.39.72,1.26-.16,2.44-.3,2.71-.31.21-.01.7-.08,1.38-.19,1.21-.18,3.05-.54,3.79-.51,1.06.05,3.9,1.05,5.01,1.81,1.02.71,1.72,3.66,2.04,5,.27,1.16-.01,5.8-.2,8.11-.08.36-1.12,5.16-1.33,6.11-.11.5-.43,1.74-.78,3.01.25,0,.48,0,.68,0,.34-1.24.65-2.43.74-2.86.22-.99,1.33-6.13,1.33-6.13Z"/><path class="cls-36" d="m579.74,276c.74-.17,2.54-.36,3.51-.46l.38-.04c.72-.08,2.07.03,2.09.03.18.01.34-.12.35-.31.01-.18-.12-.34-.3-.36-.06,0-1.43-.11-2.21-.03l-.37.04c-.98.1-2.81.3-3.59.47-.48.11-1.89.34-3.13.54-.13.25-.25.49-.37.74.15-.02.31-.05.46-.07,1.32-.21,2.68-.43,3.18-.55Z"/><path class="cls-36" d="m587.84,273.91c.18.04.35-.08.39-.26.04-.18-.08-.36-.25-.4-.42-.09-4.16-.65-4.98-.54-.54.07-2.2.25-4.94.3-.13.22-.27.45-.4.68,2.19-.04,4.68-.22,5.42-.32.53-.07,3.22.2,4.76.53Z"/><path class="cls-18" d="m582.75,272.29c1.45-.03,4.56.39,5.53.82.96.43,2.1,2.01,2.88,3.17.82,1.22,1.53,3.81,1.62,4.34.06.38.04,3.03,0,4.71,0,.18.14.34.32.34.18,0,.33-.14.34-.33,0-.44.08-4.27-.02-4.84-.11-.63-.85-3.3-1.72-4.6-.89-1.33-2.05-2.92-3.16-3.41-1.06-.47-4.28-.91-5.81-.88-.51.01-1.47.01-2.49.02-.44,0-.9,0-1.34,0-.14.22-.28.45-.42.67.59,0,1.2,0,1.77,0,1.02,0,1.98,0,2.5-.02Z"/><path class="cls-18" d="m595.85,292.47c.06-.25,1.52-6.13,1.58-9.04.06-2.75-1.61-6.44-3.25-8.43-1.63-1.98-3.88-4.42-5.31-4.85-1.31-.39-5.67-1.47-7.88-1.49-.12.16-.25.32-.37.49-.05.06-.09.13-.13.19.1,0,.2,0,.29,0,2.05-.06,6.58,1.07,7.91,1.46.98.29,2.8,1.98,4.99,4.63,1.53,1.85,3.15,5.43,3.09,7.99-.06,2.84-1.5,8.65-1.56,8.89l-.02.08c-.18.73-.5,2.02-.78,3.45.42-.66.8-1.41,1.15-2.18.1-.44.2-.82.27-1.11l.02-.08Z"/><path class="cls-17" d="m598.17,280.28c-.69-2.35-2.47-5.14-2.68-5.45-.58-.89-2.92-3.8-4.77-5.1-1.69-1.18-5.34-1.98-7.76-2.51l-.49-.11c-.08-.02-.15-.03-.22-.04-.16.2-.33.39-.49.59.19.03.38.06.57.1l.49.11c2.22.49,5.94,1.3,7.52,2.4,1.7,1.19,3.99,3.99,4.6,4.92.71,1.09,2.06,3.43,2.59,5.27.57,1.94.4,4.98.31,6.61,0,.11-.02.24-.03.39.22-.57.46-1.16.76-1.76.06-1.69.05-3.86-.41-5.43Z"/><path class="cls-28" d="m594.8,267.21c-1.96-1.39-4.41-3.07-6.06-3.67-.58-.21-1.46-.5-2.37-.78-.19.17-.38.35-.57.52,1.03.32,2.07.66,2.72.89,1.57.57,3.98,2.22,5.91,3.59,1.69,1.2,4.52,5.08,5.14,6.56.61,1.45,1.47,6.98,1.37,7.81,0,.07-.01.15-.01.23.21-.21.44-.4.67-.59-.07-1.64-.82-6.29-1.42-7.71-.67-1.58-3.57-5.56-5.37-6.84Z"/><path class="cls-18" d="m597,268.88c.13.13.34.13.47,0,.13-.13.13-.34,0-.47-.06-.06-1.5-1.55-3.15-2.7-1.45-1.02-5.17-3.21-6.88-3.89-.07.06-.14.11-.21.17-.13.11-.25.22-.38.33,1.27.38,5.4,2.77,7.09,3.94,1.59,1.11,3.04,2.6,3.05,2.62Z"/><path class="cls-10" d="m598.01,267.47c-1.45-2.06-5.09-4.72-7.05-5.78-.55-.3-1.29-.63-2.08-.96-.21.15-.42.31-.62.46.91.37,1.77.75,2.39,1.09,1.95,1.05,5.48,3.68,6.83,5.58,1.34,1.89,3.48,7.4,3.91,8.98.17.63.59,2.4.93,4.43.2-.12.4-.23.61-.34-.34-1.97-.73-3.65-.9-4.27-.45-1.65-2.61-7.21-4.01-9.19Z"/><path class="cls-20" d="m601.46,272.44c-.43-.97-.84-1.88-1.05-2.47l-.09-.25c-.53-1.51-1.42-4.03-3.38-5.32-1.95-1.29-4.53-3.05-4.56-3.07-.15-.1-.36-.06-.46.09-.04.06-.06.13-.06.2,0,.1.06.2.14.26.03.02,2.61,1.78,4.57,3.08,1.77,1.17,2.62,3.56,3.12,4.99l.09.25c.22.61.63,1.54,1.07,2.51.58,1.3,1.24,2.77,1.5,3.65.26.9.72,3.16,1.03,4.81.2-.09.41-.17.63-.24-.31-1.64-.76-3.85-1.02-4.76-.27-.93-.91-2.36-1.53-3.74Z"/><path class="cls-17" d="m602.26,268.5c-.26-.24-.67-.8-1.16-1.44-.8-1.07-1.8-2.4-2.82-3.34-1.77-1.62-4.69-3.2-6.66-3.59-.37-.07-.81-.21-1.29-.38-.23.15-.47.3-.7.45.68.26,1.33.48,1.85.58,1.84.36,4.69,1.9,6.35,3.43.98.9,1.95,2.2,2.74,3.25.52.7.93,1.24,1.23,1.53.68.65,3.43,5.36,3.84,7.98.15.96.21,2.43.22,3.56.21-.02.43-.03.66-.03-.01-1.15-.07-2.65-.23-3.64-.43-2.8-3.3-7.66-4.04-8.36Z"/><path class="cls-21" d="m603.57,267.52c-.15-.28-.3-.54-.44-.79-1.09-2-2.62-3.75-4.97-5.68-1.88-1.54-3.37-2.53-4.62-3.06-.28.13-.55.26-.82.4,1.28.41,2.88,1.42,5.03,3.18,2.28,1.87,3.76,3.56,4.81,5.48.14.25.28.52.44.8,1.17,2.11,2.76,5,3.5,7.9.36,1.42.56,3.34.65,4.73.22,0,.44.01.66.02-.09-1.44-.3-3.43-.68-4.92-.76-2.98-2.38-5.91-3.56-8.06Z"/><path class="cls-18" d="m597.39,262.25c.58.52,3.41,3.74,3.8,4.35.1.16.3.2.45.1.15-.1.2-.31.1-.46-.42-.67-3.3-3.95-3.92-4.5-.64-.58-3.76-2.05-5.3-2.43-.26-.06-.58-.18-.93-.32-.24.14-.48.27-.72.42.56.25,1.09.46,1.49.55,1.5.37,4.5,1.81,5.02,2.28Z"/><path class="cls-38" d="m604.05,265.27c-.17-.16-.35-.31-.52-.47-1.68-1.56-3.31-3.16-4.83-5.01-1.17-.82-2.46-1.57-3.88-2.24-.05-.03-.11-.05-.16-.08-.26.12-.52.23-.78.36.23.12.45.23.66.33,3.81,1.8,6.58,4.05,8.49,6.88,2.53,3.76,3.73,6.69,4.57,11.18.28,1.5.43,3.06.52,4.21.22,0,.44.02.66.03-.09-1.19-.24-2.8-.53-4.37-.8-4.24-1.96-7.35-4.21-10.83Z"/><path class="cls-26" d="m597.91,258.8c-.34-.44-.67-.88-1-1.33-.32-.18-.63-.36-.93-.53-.26.1-.53.21-.78.31.73.43,1.58.91,2.5,1.43.07.04.14.08.21.12Z"/><path class="cls-18" d="m606.29,267.07c-.43-.33-.85-.67-1.28-1.02.06.12.2.47.27.58,1.63,2.95,2.62,6.56,2.97,7.98.3,1.22.78,3.88,1.16,5.88.23.01.45.03.68.04-.39-2.05-.89-4.81-1.2-6.09-.32-1.29-1.23-4.59-2.6-7.38Z"/><path class="cls-33" d="m608.57,268.67c-.31-.21-.63-.42-.94-.65.46,1.16.84,2.58,1.06,3.82.5,2.88,1.12,6.36,1.61,8.7.23.01.46.03.68.04-.5-2.35-1.14-5.91-1.65-8.86-.16-.92-.42-2.06-.76-3.05Z"/><path class="cls-13" d="m610.08,269.67c-.27-.17-.54-.34-.82-.51.52,1.73,1.55,7.78,1.91,10.16.04.28.12.91.18,1.28.22.01.45.02.67.04-.06-.4-.15-1.07-.2-1.41-.28-1.86-1.16-7.14-1.75-9.55Z"/><path class="cls-22" d="m613.54,273.65c-.02-.3-.12-1.09-.23-1.95-.24-.13-.47-.26-.72-.39.14.98.26,1.97.29,2.4.03.44.33,2.53.67,4.95.08.57.22,1.6.3,2.19.22,0,.45,0,.67,0-.09-.61-.23-1.67-.32-2.28-.32-2.31-.63-4.49-.66-4.9Z"/><path class="cls-15" d="m615.2,277.11c.16-1.31.09-2.93-.16-4.49-.24-.13-.49-.26-.74-.39.31,1.64.41,3.41.25,4.8-.11.93-.02,2.6.1,3.75.22,0,.45-.01.66-.03-.12-1.13-.22-2.77-.11-3.65Z"/><path class="cls-11" d="m616.62,273.47c-.21-.11-.42-.23-.64-.35,0,.08,0,.15,0,.23-.13,1.58-.25,5.04-.13,7.39.22-.02.44-.04.66-.07-.1-2.01-.03-5.1.13-7.19Z"/><path class="cls-23" d="m618.37,274.5s-.03-.02-.04-.03c-.11-.07-.22-.14-.33-.22-.09-.05-.18-.1-.27-.16.26,1.61.44,3.94.54,6,.23-.1.45-.21.64-.34-.09-1.74-.25-3.74-.45-5.18-.03-.02-.06-.04-.09-.07Z"/><path class="cls-17" d="m619.77,277.48c-.05-.59-.1-1.18-.15-1.76-.12-.2-.28-.4-.47-.6h0c-.08-.07-.16-.14-.24-.22,0,0,0,0,0,0-.01,0-.03-.02-.04-.03.1.84.17,1.76.25,2.66.04.54.09,1.1.14,1.63.25-.24.45-.52.59-.85-.02-.28-.05-.56-.07-.84Z"/><path class="cls-18" d="m583.2,283.37c-.86-.99-1.67-.55-2.38-.17-.06.03-.11.06-.17.09-.68.36-2.69,2.39-4.58,4.34l-.26.26c-.76.79-1.37,1.97-1.61,3.16-.11.54-.4,1.42-.65,2.2-.26.79-.42,1.29-.45,1.53-.06.41-1.15,2.86-1.6,3.6.24,0,.5,0,.76,0,.54-1.02,1.43-3.04,1.49-3.51.03-.2.23-.82.42-1.42.26-.79.55-1.69.67-2.27.22-1.06.77-2.14,1.44-2.83l.26-.27c.92-.95,3.73-3.86,4.41-4.21.06-.03.12-.06.18-.09.76-.41,1.08-.55,1.58.02.45.52,0,2.19-.63,3.52-.24.52-1.19,2.31-2.3,3.71-1.16,1.44-2.29,3.69-2.63,4.69-.27.8-.17,1.83-.02,2.67.22,0,.45,0,.67,0-.15-.78-.27-1.75-.03-2.45.33-.98,1.45-3.16,2.52-4.49,1.16-1.45,2.12-3.27,2.39-3.84.44-.95,1.39-3.27.53-4.25Z"/><path class="cls-34" d="m584.93,283.94c-.04-.78-.13-1.59-.8-2.19-.65-.58-1.38-1.09-2.56-.37-.56.34-1.71,1.26-2.82,2.15-.81.65-1.57,1.25-1.92,1.49-.14.09-3.35,2.25-3.74,4.02-.3,1.37-.86,4.08-.89,4.32-.32,1.9-2.09,4.75-2.36,5.04.26,0,.54,0,.84,0,.71-1,1.86-3.28,2.17-4.93v-.02s.58-2.89.88-4.25c.24-1.11,2.25-2.8,3.46-3.61.37-.25,1.11-.84,1.97-1.52,1.04-.83,2.23-1.78,2.75-2.1.74-.45,1.13-.28,1.79.3.43.39.54.9.58,1.72.03.61-.38,3.47-.54,4.56-.12.4-1.8,6.12-2.55,8.42-.15.46-.25.96-.32,1.46.22,0,.45,0,.67,0,.06-.44.15-.86.28-1.26.78-2.38,2.55-8.4,2.56-8.46v-.04c.03-.16.6-3.91.56-4.71Z"/><path class="cls-32" d="m576.36,296.68c.05-.2.1-.43.15-.68.18-.82.4-1.84.77-2.53,1.29-2.38,1.46-2.59,2.01-3.3.18-.23.4-.51.71-.93l.18-.25c.44-.59.8-1.06,1.55-2.65.3-.62.55-1.3.15-1.63-.12-.1-.49-.41-1.7.54-.38.3-1.58,1.5-2.11,2.11-.51.58-.54.67-1.19,2.02l-.19.39c-.08.17-.01.37.16.45.17.08.37.01.45-.16l.19-.39c.63-1.33.64-1.35,1.09-1.87.5-.58,1.67-1.75,2.01-2.02.41-.32.68-.46.82-.5-.02.12-.08.35-.28.76-.73,1.52-1.05,1.95-1.49,2.53l-.19.25c-.31.41-.52.69-.7.92-.56.72-.75.96-2.07,3.39-.42.78-.65,1.85-.84,2.71-.05.24-.1.46-.15.66-.13.54-.16,1.27-.15,1.88.23,0,.45,0,.67,0-.01-.56.01-1.24.13-1.72Z"/><path class="cls-8" d="m574.57,297.79l.1-.27c.36-.94.81-2.1.94-3.06l.06-.41c.12-.85.22-1.58.33-2.56.02-.19-.11-.35-.29-.37-.18-.02-.35.11-.37.3-.11.97-.21,1.7-.33,2.54l-.06.41c-.12.89-.56,2.01-.9,2.91l-.1.27c-.11.28-.21.58-.29.85.24,0,.47,0,.7,0,.07-.2.14-.41.21-.61Z"/><path class="cls-17" d="m595.67,280.7c-.05-.2-.1-.37-.12-.59-.11-.85-.54-1.89-.92-2.55-.41-.7-2.17-2.34-2.37-2.52,0,0-.02,0-.03-.02-.42-.71-.85-1.37-1.22-1.84-1.34-1.7-3.66-2.32-4.51-2.34-.35,0-1.6-.11-2.92-.22-1.35-.11-2.83-.23-3.79-.29-.15.21-.29.43-.43.64.9.05,2.68.19,4.17.32,1.39.11,2.6.21,2.96.22.84.02,2.89.66,4.02,2.09,1.24,1.57,2.89,4.92,2.95,5.5l.02.21c.53,4.58.47,5.78.39,6.09-.11.41-.54,2.24-1.05,4.36-.65,2.75-1.46,6.18-1.65,6.79-.08.27-.24.97-.42,1.88.15,0,.24,0,.24,0,.15,0,.3-.02.45-.04.16-.8.3-1.41.37-1.64.19-.63.97-3.92,1.66-6.83.48-2.03.93-3.94,1.04-4.33.18-.64.06-2.71-.37-6.35l-.02-.21c-.04-.33-.36-1.1-.8-2.01.34.36.62.69.74.89.41.7.75,1.65.84,2.29.03.26.09.46.14.67.11.42.23.89.23,2.03,0,2.14-.29,4.23-.86,6.21-.68,2.34-.82,2.89-.82,2.91-.04.18.06.36.24.41.03,0,.05.01.08.01.15,0,.29-.1.32-.26,0,0,.14-.56.81-2.88.59-2.04.89-4.19.89-6.4,0-1.22-.13-1.74-.25-2.2Z"/><path class="cls-30" d="m593.5,297.06c.08-1.61.31-3.16.31-3.18.03-.18-.1-.36-.28-.39-.19-.03-.35.1-.38.28-.02.11-.31,2.09-.34,3.94.24-.19.47-.41.69-.66Z"/><path class="cls-36" d="m598.51,276.99c-.72-1.62-2.98-5.06-3.71-5.76l-.14-.14c-.76-.74-2.55-2.47-4.89-3.45-2.46-1.03-5.79-1.53-5.93-1.55-.19-.03-.35.1-.38.29-.03.18.1.36.28.38.03,0,3.39.51,5.77,1.5,2.23.94,3.95,2.6,4.69,3.31l.15.14c.6.58,2.85,3.95,3.56,5.55.59,1.34,1.05,5.09,1.27,6.9.02.12.03.24.04.35.18-.29.37-.57.57-.85-.25-2.04-.68-5.33-1.27-6.67Z"/><path class="cls-32" d="m605.22,280.68c-.02-1.72-.44-4.73-.9-6.01-.36-1-1.3-2.46-2.06-3.63-.41-.64-.8-1.24-.9-1.47-.07-.17-.27-.25-.44-.18-.17.07-.25.27-.18.44.12.29.49.86.96,1.58.7,1.08,1.66,2.56,1.99,3.49.45,1.25.86,4.3.86,5.92.01,0,.03,0,.04-.01.2-.05.41-.09.63-.12Z"/><path class="cls-24" d="m612.67,276.6c-.17-1.23-.23-1.64-.46-2.69-.25-1.12-.57-2.44-.77-3.27-.27-.15-.53-.31-.8-.48.13.54.59,2.4.92,3.89.23,1.02.28,1.43.45,2.64.11.76.32,2.24.6,4.03.23,0,.45.02.68.02-.29-1.86-.51-3.37-.62-4.15Z"/><path class="cls-29" d="m600.05,278.23c-.46-2.65-2.52-6.92-4.73-8.8-2.1-1.78-7.11-4.99-9.09-5.42-.26-.06-.59-.14-.95-.24-.18.18-.36.36-.54.54.52.15.99.27,1.35.36.6.13,1.59.59,2.7,1.2-.35-.05-.71-.09-1.04-.11-.65-.04-2.18-.67-3.31-1.15-.17.17-.33.35-.49.52,1.32.56,2.94,1.25,3.75,1.3,1.02.07,2.38.32,2.71.38,1.67,1.02,3.39,2.22,4.48,3.14,2.11,1.79,4.07,5.87,4.51,8.41.31,1.82.58,3.65.55,5.09.2-.26.42-.52.65-.77-.05-1.25-.25-2.73-.55-4.44Z"/><path class="cls-14" d="m617.07,280.54s.04,0,.05,0h0c.21-.04.4-.1.6-.16-.01-.18-.02-.73-.02-.86,0-1.09-.14-3.9-.15-4.02,0-.18-.16-.33-.35-.32-.18,0-.32.17-.31.35,0,.03.14,2.92.15,3.99,0,.17.01.78.03,1.02Z"/><path class="cls-20" d="m579.59,298.41c.02-1.04.27-2.65.53-3.47.18-.57.62-1.18,1.01-1.72.24-.34.48-.66.63-.94.2-.37,1.17-2.96,1.29-3.26.07-.17-.02-.37-.19-.44-.17-.07-.36.02-.43.2-.43,1.14-1.12,2.93-1.25,3.18-.13.25-.35.55-.58.87-.42.58-.9,1.24-1.11,1.91-.25.8-.54,2.51-.56,3.68.23,0,.45,0,.67,0Z"/></g><path class="cls-40" d="m565.8,220.79c-.04-.1-.09-.21-.13-.3,0,0,0,0,0-.01-1.79-4.69-5.44-9.36-2.92-11.81-1.82,1.33-6.4,4.66-10.51,7.55-4.03,2.83-8.18,5.3-8.71,6.95-1.65,5.07,3.79,12.4,1.83,18.42-1.85,5.7-13.6,8.36-12.73,12.76.9,4.54,7.19,2.01,12.7,1.8,4.71-.18,10.54-.14,18.16,2.05,1.52-2.15,3.25-5.25,4.64-9.54,1.03-3.17,1.37-6.65,1.29-10.08-.27-7.85-2.02-13.39-3.63-17.79Z"/><g class="cls-50"><path class="cls-18" d="m560.12,227.29c-.03-.06-.07-.11-.1-.17.31.07.64.11.97.11,2.22-.01,4.01-1.83,4-4.04,0-.33-.04-.66-.12-.97.06.04.12.07.18.11.03.02.05.03.08.05.06.03.12.07.18.1.1.05.19.11.29.16.02.01.04.02.06.03.05.02.09.05.14.07.01.15.02.3.02.45.02,2.68-2.15,4.87-4.83,4.88-.15,0-.3,0-.45-.02-.02-.05-.05-.1-.07-.14,0-.02-.02-.03-.02-.05-.05-.1-.11-.2-.16-.3-.03-.05-.06-.11-.09-.16-.02-.03-.04-.07-.06-.1Zm-7.9,10.64h0s-.04,0-.05,0c-3.2.02-5.81-2.57-5.83-5.76,0-.02,0-.04,0-.05h0c-.27.1-.55.18-.83.25.12,3.5,2.97,6.32,6.47,6.4.07-.28.15-.56.24-.83Zm1.28,2.7c.17-3.88,3.27-7.01,7.15-7.23-.03-.18-.05-.36-.06-.55,0-.1-.02-.19-.02-.29-4.27.25-7.69,3.71-7.89,7.98.11,0,.21.01.32.02.17.01.34.03.51.05Zm-.82-3.8s.02-.04.03-.06c.05-.1.1-.2.16-.3.03-.06.07-.12.1-.17.02-.03.03-.06.05-.09.04-.06.07-.12.11-.18h0c-.31.08-.63.12-.97.12-2.22.01-4.03-1.78-4.04-4,0-.33.04-.66.11-.97h0c-.06.03-.11.07-.17.1-.04.02-.07.04-.11.06-.05.03-.1.06-.16.09-.1.06-.2.11-.31.17-.01,0-.03.01-.04.02-.05.02-.1.05-.15.07-.01.15-.02.3-.02.45.02,2.68,2.21,4.84,4.89,4.83.15,0,.3,0,.45-.02.02-.05.05-.09.07-.14Zm8.31-7.82s-.04,0-.05,0c.1.27.18.55.25.83,3.5-.12,6.32-2.97,6.4-6.47-.28-.07-.56-.15-.83-.24,0,.02,0,.04,0,.05.02,3.2-2.57,5.81-5.76,5.83Zm-20.87-5.68c0-1.7,1.36-3.09,3.06-3.1,1.7,0,3.09,1.37,3.1,3.06,0,1.7-1.37,3.09-3.06,3.1-1.7,0-3.09-1.37-3.1-3.06Zm.84,0c0,1.24,1.02,2.24,2.26,2.23s2.24-1.02,2.23-2.26-1.02-2.24-2.26-2.23c-1.24,0-2.24,1.02-2.23,2.26Zm20.02,2.97c-1.7,0-3.09-1.37-3.1-3.06,0-1.7,1.37-3.09,3.06-3.1,1.7,0,3.09,1.37,3.1,3.06,0,1.7-1.37,3.09-3.06,3.1Zm2.23-3.09c0-1.24-1.02-2.24-2.26-2.23-1.24,0-2.24,1.02-2.23,2.26,0,1.24,1.02,2.24,2.26,2.23s2.24-1.02,2.23-2.26Zm-10.68.83c-.01.18-.03.36-.06.54h0c3.88.17,7.01,3.27,7.23,7.15t0,0c.19-.03.38-.05.58-.07.09,0,.17-.02.26-.02-.25-4.27-3.71-7.69-7.98-7.89,0,.1-.01.19-.02.29Zm-.9-1.25c0-.1.01-.19.02-.28.02-.18.03-.37.06-.55h0c-3.88-.17-7.01-3.27-7.23-7.15h0c-.17.02-.34.04-.51.06-.11,0-.21.02-.32.03.25,4.27,3.71,7.69,7.98,7.89Zm-8.4,4.55c-.33,0-.66-.04-.97-.11.04.06.07.11.1.17l.06.1c.03.05.06.11.09.16.06.1.11.2.17.3,0,.02.02.03.02.05.02.05.05.1.07.14.15.01.3.02.45.02,2.68-.02,4.84-2.21,4.83-4.88,0-.15,0-.3-.02-.45-.05-.02-.09-.05-.14-.07-.02-.01-.04-.02-.06-.03-.1-.05-.2-.1-.29-.16-.06-.03-.12-.07-.18-.1-.03-.02-.05-.03-.08-.05-.06-.04-.12-.07-.18-.11.08.31.12.63.12.97.01,2.22-1.78,4.03-4,4.04Zm5.82,4.82c0-1.7,1.37-3.09,3.06-3.1,1.7,0,3.09,1.36,3.1,3.06,0,1.7-1.37,3.09-3.06,3.1-1.7,0-3.09-1.37-3.1-3.06Zm.84,0c0,1.24,1.02,2.24,2.26,2.23,1.24,0,2.24-1.02,2.23-2.26,0-1.24-1.02-2.24-2.26-2.23-1.24,0-2.24,1.02-2.23,2.26Zm-6.65-3.04s-.04,0-.05,0c.1.27.18.55.25.83,3.5-.12,6.32-2.97,6.4-6.47-.28-.07-.56-.15-.83-.24,0,.02,0,.04,0,.05.02,3.2-2.57,5.81-5.76,5.83Zm8.81-2.76h0s.04,0,.05,0c3.2-.02,5.81,2.57,5.83,5.76,0,.02,0,.04,0,.05h0c.27-.1.55-.18.83-.25-.12-3.5-2.97-6.31-6.47-6.4-.07.28-.15.56-.24.83Zm-.46,1.11s-.02.04-.03.05c-.05.1-.11.2-.16.3-.03.05-.06.11-.09.16-.02.04-.04.07-.06.11-.03.06-.07.11-.1.17h0c.31-.08.63-.12.97-.12,2.22-.01,4.03,1.78,4.04,4,0,.33-.04.66-.11.97,0,0,0,0,0,0,.06-.04.12-.08.18-.11.03-.02.05-.03.08-.05.06-.04.12-.07.18-.1.1-.06.19-.11.29-.16.02-.01.04-.02.06-.03.05-.02.09-.05.14-.07.01-.15.02-.3.02-.45-.02-2.68-2.21-4.85-4.89-4.83-.15,0-.3.01-.45.02-.02.05-.05.1-.07.14Zm-.81-3.81c-.17,3.88-3.27,7.01-7.15,7.23.03.18.05.36.06.54,0,.1.02.19.02.29,4.27-.25,7.69-3.71,7.89-7.98-.09,0-.17-.01-.25-.02-.19-.01-.39-.03-.58-.06Zm9.69-8.83c-4.27.25-7.69,3.71-7.89,7.98.11,0,.21.01.32.02.17.01.34.03.51.05.17-3.88,3.27-7.01,7.15-7.23-.03-.18-.05-.36-.06-.55,0-.09-.02-.19-.02-.29Zm.48,3.54c-2.68.02-4.84,2.21-4.83,4.88,0,.15,0,.3.02.45.05.02.1.05.15.07.02,0,.03.02.05.02.1.05.2.11.31.16.05.03.1.06.16.09.04.02.07.04.11.06.06.03.11.07.17.1-.08-.31-.12-.63-.12-.97-.01-2.22,1.78-4.03,4-4.04.33,0,.66.04.97.11-.04-.06-.07-.12-.11-.18-.02-.03-.03-.06-.05-.08-.03-.06-.07-.11-.1-.17-.06-.1-.11-.2-.16-.29,0-.02-.02-.04-.03-.06-.02-.05-.05-.09-.07-.14-.15-.01-.3-.02-.45-.02Zm-6.6,4.7c.28.07.56.15.83.24,0-.02,0-.04,0-.05-.02-3.2,2.57-5.81,5.76-5.83.02,0,.04,0,.05,0-.1-.27-.18-.55-.25-.83-3.5.12-6.32,2.97-6.4,6.47Zm6.95-10.04c.03.18.05.36.06.54,0,.1.02.19.02.29,4.27-.25,7.69-3.71,7.89-7.98-.09,0-.17-.01-.25-.02-.19-.01-.39-.03-.58-.06-.17,3.88-3.27,7.01-7.15,7.23Zm-1.69.95s0,0,0,0c.19-.03.38-.05.58-.07.09,0,.17-.02.26-.02-.25-4.27-3.71-7.69-7.98-7.89,0,.1-.01.19-.02.29-.01.18-.03.36-.06.54h0c3.88.17,7.01,3.27,7.23,7.15Zm-1.61,27.02c0-1.7,1.37-3.09,3.06-3.1,1.7,0,3.09,1.37,3.1,3.06,0,1.7-1.36,3.09-3.06,3.1-1.7,0-3.09-1.37-3.1-3.06Zm.84,0c0,1.24,1.02,2.24,2.26,2.23,1.24,0,2.24-1.02,2.23-2.26,0-1.24-1.02-2.24-2.26-2.23s-2.24,1.02-2.23,2.26Zm-13.92-6.62c-.18-.57-.57-1.18-.6-1.8-.17.02-.06.04-.23.06-.11,0-.21.02-.32.03.25,4.27,3.71,7.69,7.98,7.89,0-.1.01-.19.02-.29.01-.18.03-.37.06-.55h0c-3.25-.14-5.99-2.35-6.91-5.35Zm-1.61,3.63c1.7,0,3.09,1.37,3.1,3.06,0,1.7-1.37,3.09-3.06,3.1-1.7,0-3.09-1.37-3.1-3.06,0-1.7,1.37-3.09,3.06-3.1Zm-2.23,3.09c0,1.24,1.02,2.24,2.26,2.23,1.24,0,2.24-1.02,2.23-2.26,0-1.24-1.02-2.24-2.26-2.23-1.24,0-2.24,1.02-2.23,2.26Zm19.31,8.33c.08,0,.17-.02.25-.02-.25-4.27-3.71-7.69-7.98-7.89,0,.1-.01.19-.02.29-.01.18-.03.36-.06.54h0c3.88.17,7.01,3.27,7.23,7.15h0c.19-.03.38-.05.58-.07Zm9.5-20.45c1.7,0,3.09,1.36,3.1,3.06,0,1.7-1.37,3.09-3.06,3.1-1.7,0-3.09-1.37-3.1-3.06,0-1.7,1.37-3.09,3.06-3.1Zm0,.84c-1.24,0-2.24,1.02-2.23,2.26s1.02,2.24,2.26,2.23c1.24,0,2.24-1.02,2.23-2.26,0-1.24-1.02-2.24-2.26-2.23Zm-3.89,1.3c-.06.04-.11.07-.17.1-.04.02-.07.04-.11.06-.05.03-.11.06-.16.09-.1.06-.2.11-.31.17-.01,0-.03.01-.04.02-.05.02-.1.05-.15.07-.01.15-.02.3-.02.45.02,2.68,2.21,4.84,4.89,4.83.15,0,.3,0,.45-.02.02-.05.05-.09.07-.14.01-.02.02-.04.03-.06.05-.1.1-.2.16-.3.03-.06.07-.12.1-.17.02-.03.03-.06.05-.09.04-.06.07-.12.11-.18,0,0,0,0,0,0-.31.08-.63.12-.97.12-2.22.01-4.03-1.78-4.04-4,0-.33.04-.66.11-.97,0,0,0,0,0,0Zm-4.26-16.33c-.11,0-.21.02-.32.03.25,4.27,3.71,7.69,7.98,7.89,0-.1.01-.19.02-.28.01-.18.03-.37.06-.55h0c-3.88-.17-7.01-3.27-7.23-7.15h0c-.17.02-.34.04-.51.06Zm-8.91,39.77c.05-.1.1-.2.16-.3.03-.06.07-.12.1-.17.02-.03.03-.06.05-.09.04-.06.07-.12.11-.18,0,0,0,0,0,0-.31.08-.63.12-.97.12-2.22.01-4.03-1.78-4.04-4,0-.33.04-.66.11-.97h0c-.06.03-.11.07-.17.1-.04.02-.07.04-.11.06-.05.03-.1.06-.16.09-.1.06-.2.11-.31.17-.01,0-.03.01-.04.02-.05.02-.1.05-.15.07-.01.15-.02.3-.02.45.02,2.68,2.21,4.85,4.89,4.83.15,0,.3-.01.45-.02.02-.05.05-.09.07-.14.01-.02.02-.04.03-.06Zm-.54,1.16c-3.2.02-5.81-2.57-5.83-5.76,0-.02,0-.04,0-.05h0c-.27.1-.55.18-.83.25.12,3.5,2.97,6.31,6.47,6.4.07-.28.15-.56.24-.83h0s-.04,0-.05,0Zm3.87-4.85c.06-.04.12-.08.18-.11.03-.02.05-.03.08-.05.06-.03.12-.07.18-.1.1-.06.19-.11.29-.16.02-.01.04-.02.06-.03.05-.02.09-.05.14-.07.01-.15.02-.3.02-.45-.02-2.68-2.21-4.84-4.88-4.83-.15,0-.3,0-.45.02-.02.05-.05.1-.07.14,0,.02-.02.04-.03.05-.05.1-.11.2-.16.3-.03.05-.06.11-.09.16-.02.04-.04.07-.06.11-.03.06-.07.11-.1.17,0,0,0,0,0,0,.31-.08.63-.12.97-.12,2.22-.01,4.03,1.78,4.04,4,0,.33-.04.66-.11.97,0,0,0,0,0,0Zm1.89-.93c.27-.1.55-.18.83-.25-.12-3.5-2.97-6.31-6.47-6.4-.07.28-.15.56-.24.83h0s.04,0,.05,0c3.2-.02,5.81,2.57,5.83,5.76,0,.02,0,.04,0,.05h0Zm-23.58-5.72c3.2-.02,5.81,2.57,5.83,5.76,0,.02,0,.04,0,.05h0c.27-.1.55-.18.83-.25-.12-3.5-2.97-6.31-6.47-6.4-.07.28-.15.56-.24.83h0s.04,0,.05,0Zm14.71,5.71c0-1.7,1.37-3.09,3.06-3.1,1.7,0,3.09,1.37,3.1,3.06,0,1.7-1.37,3.09-3.06,3.1s-3.09-1.36-3.1-3.06Zm.84,0c0,1.24,1.02,2.24,2.26,2.23s2.24-1.02,2.23-2.26c0-1.24-1.02-2.24-2.26-2.23-1.24,0-2.24,1.02-2.23,2.26Zm16.92-.1c0-1.7,1.37-3.09,3.06-3.1s3.09,1.37,3.1,3.06c0,1.7-1.37,3.09-3.06,3.1-1.7,0-3.09-1.36-3.1-3.06Zm.84,0c0,1.24,1.02,2.24,2.26,2.23,1.24,0,2.24-1.02,2.23-2.26,0-1.24-1.02-2.24-2.26-2.23s-2.24,1.02-2.23,2.26Zm-33.29-3.83c2.22-.01,4.03,1.78,4.04,4,0,.33-.04.66-.11.97,0,0,0,0,0,0,.06-.04.12-.08.18-.11.03-.02.05-.03.08-.05.06-.03.12-.07.18-.1.1-.06.19-.11.29-.16.02-.01.04-.02.06-.03.05-.02.09-.05.14-.07.01-.15.02-.3.02-.45-.02-2.68-2.21-4.84-4.89-4.83-.15,0-.3,0-.45.02-.02.05-.05.1-.07.14,0,.02-.02.04-.03.05-.05.1-.1.2-.16.3-.03.05-.06.11-.09.16-.02.04-.04.07-.06.11-.03.06-.07.11-.1.17,0,0,0,0,0,0,.31-.08.63-.12.97-.12Zm7.58,3.6h0c.19-.03.38-.05.58-.06.09,0,.17-.02.25-.02-.25-4.27-3.71-7.69-7.98-7.89,0,.1-.01.19-.02.29-.02.18-.03.36-.06.54h0c3.88.17,7.01,3.27,7.23,7.15Zm28.53,4.85c.05-.1.1-.2.16-.3.03-.06.07-.12.1-.17.02-.03.03-.06.05-.09.04-.06.07-.12.11-.18h0c-.31.08-.63.12-.97.12-2.22.01-4.03-1.78-4.04-4,0-.33.04-.66.11-.97,0,0,0,0,0,0-.06.04-.11.07-.17.1-.04.02-.07.04-.11.06-.05.03-.11.06-.16.09-.1.06-.2.11-.31.17-.01,0-.03.01-.04.02-.05.02-.1.05-.15.07-.01.15-.02.3-.02.45.02,2.68,2.21,4.85,4.89,4.83.15,0,.3-.01.45-.02.02-.05.05-.09.07-.14.01-.02.02-.04.03-.06Zm-36.06,1.36c-3.2.02-5.81-2.57-5.83-5.76,0-.02,0-.04,0-.05h0c-.27.1-.55.18-.83.25.12,3.5,2.97,6.31,6.47,6.4.07-.28.15-.56.24-.83h0s-.04,0-.05,0Zm35.51-.2c-3.2.02-5.81-2.57-5.83-5.76,0-.02,0-.04,0-.05h0c-.27.1-.55.18-.83.25.12,3.5,2.97,6.31,6.47,6.4.07-.28.15-.56.24-.83h0s-.04,0-.05,0Zm-18.01-45.23c2.22-.01,4.03,1.78,4.04,4,0,.33-.04.66-.11.97,0,0,0,0,0,0,.06-.04.12-.08.18-.11.03-.02.05-.03.08-.05.06-.04.12-.07.18-.1.1-.06.19-.11.29-.16.02-.01.04-.02.06-.03.05-.02.09-.05.14-.07.01-.15.02-.3.02-.45-.02-2.68-2.21-4.85-4.89-4.83-.15,0-.3.01-.45.02-.02.05-.05.1-.07.14,0,.02-.02.04-.03.05-.05.1-.11.2-.16.3-.03.05-.06.11-.09.16-.02.04-.04.07-.06.11-.03.06-.07.11-.1.17h0c.31-.08.63-.12.97-.12Zm-3.06,4.04c0-1.7,1.37-3.09,3.06-3.1,1.7,0,3.09,1.37,3.1,3.06,0,1.7-1.37,3.09-3.06,3.1-1.7,0-3.09-1.37-3.1-3.06Zm.84,0c0,1.24,1.02,2.24,2.26,2.23,1.24,0,2.24-1.02,2.23-2.26,0-1.24-1.02-2.24-2.26-2.23s-2.24,1.02-2.23,2.26Zm-14.73,40.23c.05-.1.1-.2.16-.3.03-.06.07-.12.1-.17.02-.03.03-.06.05-.09.04-.06.07-.12.11-.18,0,0,0,0,0,0-.31.08-.63.12-.97.12-2.22.01-4.03-1.78-4.04-4,0-.33.04-.66.11-.97,0,0,0,0,0,0-.06.04-.11.07-.17.1-.03.02-.07.04-.11.06-.05.03-.11.06-.16.09-.1.06-.2.11-.31.17-.01,0-.03.01-.04.02-.05.02-.1.05-.15.07-.01.15-.02.3-.02.45.02,2.68,2.21,4.85,4.89,4.83.15,0,.3-.01.45-.02.02-.05.05-.09.07-.14.01-.02.02-.04.03-.06Zm34.31-31.01c-.09,0-.17-.01-.25-.02-.19-.01-.39-.03-.58-.06-.17,3.88-3.27,7.01-7.15,7.23.03.18.05.36.06.54,0,.1.02.19.02.29,4.27-.25,7.69-3.71,7.89-7.98Zm-8.32,13.33c.33,0,.66.04.97.11-.04-.06-.07-.12-.11-.18-.02-.03-.03-.06-.05-.08-.03-.06-.07-.11-.1-.17-.06-.1-.11-.2-.16-.3-.01-.02-.02-.04-.03-.06-.02-.05-.05-.09-.07-.14-.15-.01-.3-.02-.45-.02-2.68.02-4.84,2.21-4.83,4.89,0,.15,0,.3.02.45.05.02.1.05.15.07.02,0,.03.02.05.02.1.05.2.11.31.16.05.03.11.06.16.09.04.02.07.04.11.07.06.03.11.06.17.1-.08-.31-.12-.63-.12-.97-.01-2.22,1.78-4.03,4-4.04Zm-8.98-17.71c.15,0,.3,0,.45-.02.02-.05.05-.09.07-.14,0-.02.02-.04.03-.06.05-.1.1-.2.16-.3.03-.06.07-.12.1-.17.02-.03.03-.06.05-.09.04-.06.07-.12.11-.18,0,0,0,0,0,0-.31.08-.63.12-.97.12-2.22.01-4.03-1.78-4.04-4,0-.33.04-.66.11-.97t0,0c-.06.04-.11.07-.17.1-.04.02-.07.04-.11.06-.05.03-.1.06-.16.09-.1.06-.2.11-.3.17-.01,0-.03.02-.04.02-.05.02-.1.05-.15.07-.01.15-.02.3-.02.45.02,2.68,2.21,4.84,4.88,4.83Zm17.92,18.59h0s-.04,0-.05,0c-3.2.02-5.81-2.57-5.83-5.76,0-.02,0-.04,0-.05h0c-.27.1-.55.18-.83.25.12,3.5,2.97,6.31,6.47,6.4.07-.28.15-.56.24-.83Zm-5.99-23.52s0-.04,0-.05h0c-.27.1-.55.18-.83.25.12,3.5,2.97,6.31,6.47,6.4.07-.28.15-.56.24-.83h0s-.04,0-.05,0c-3.2.02-5.81-2.57-5.83-5.76Zm-11.99-5.73c3.2-.02,5.81,2.57,5.83,5.76,0,.02,0,.04,0,.05h0c.27-.1.55-.18.83-.25-.12-3.5-2.97-6.31-6.47-6.4-.07.28-.15.56-.24.83h0s.04,0,.05,0Zm-.12,12.43c.07-.28.15-.56.24-.83h0s-.04,0-.05,0c-3.2.02-5.81-2.57-5.83-5.76,0-.02,0-.04,0-.05h0c-.27.1-.55.18-.83.25.12,3.5,2.97,6.31,6.47,6.4Zm-20.48,29c0-1.7,1.37-3.09,3.06-3.1,1.7,0,3.09,1.37,3.1,3.06,0,1.7-1.36,3.09-3.06,3.1-1.7,0-3.09-1.36-3.1-3.06Zm.84,0c0,1.24,1.02,2.24,2.26,2.23,1.24,0,2.24-1.02,2.23-2.26,0-1.24-1.02-2.24-2.26-2.23-1.24,0-2.24,1.02-2.23,2.26Zm28.8-14.84s.04,0,.05,0c-.1-.27-.18-.55-.25-.83-3.5.12-6.31,2.97-6.4,6.47.28.07.56.15.83.24,0-.02,0-.04,0-.05-.02-3.2,2.57-5.81,5.76-5.83Zm-17.64,20.57c-1.7,0-3.07,1.4-3.06,3.1h.84c0-1.24.99-2.26,2.23-2.26s2.25.99,2.26,2.23h.84c0-1.7-1.4-3.08-3.1-3.07Zm0-.94c.33,0,.66.04.97.11-.04-.06-.07-.12-.11-.18-.02-.03-.03-.06-.05-.08-.03-.06-.07-.11-.1-.17-.06-.1-.11-.2-.16-.3-.01-.02-.02-.04-.03-.06-.02-.05-.05-.09-.07-.14-.15-.01-.3-.02-.45-.02-2.68.02-4.84,2.21-4.83,4.88h0s.84,0,.84,0h0c-.01-2.22,1.78-4.03,4-4.04Zm-.01-1.78s.04,0,.05,0c-.1-.27-.18-.55-.25-.83-3.5.12-6.32,2.97-6.4,6.47.23.06.45.12.67.19h.16c-.02-3.2,2.57-5.81,5.76-5.83Zm17.76-.1s.04,0,.05,0c-.1-.27-.18-.55-.25-.83-3.5.12-6.31,2.97-6.4,6.47.23.06.45.12.67.19h.16c-.02-3.2,2.57-5.81,5.76-5.83Zm.02,2.72c-1.7,0-3.07,1.4-3.06,3.1h.84c0-1.24.99-2.26,2.23-2.26,1.24,0,2.25.99,2.26,2.23h.84c0-1.7-1.4-3.08-3.1-3.07Zm0-.94c.33,0,.66.04.97.11-.04-.06-.07-.12-.11-.18-.02-.03-.03-.06-.05-.08-.03-.06-.07-.11-.1-.17-.06-.1-.11-.2-.16-.3-.01-.02-.02-.04-.03-.06-.02-.05-.05-.09-.07-.14-.15-.01-.3-.02-.45-.02-2.68.02-4.84,2.21-4.83,4.88h0s.84,0,.84,0h0c-.01-2.22,1.78-4.03,4-4.04Zm17.76.84c-1.7,0-3.07,1.4-3.06,3.1h.84c0-1.24.99-2.26,2.23-2.26v-.84Zm-.02-2.71v-.16c-.08-.22-.14-.44-.2-.67-3.5.12-6.32,2.97-6.4,6.47.23.05.45.12.67.19h.16c-.02-3.2,2.57-5.81,5.76-5.83Zm0,1.78v-.84c-2.68.02-4.85,2.21-4.83,4.88h.84c-.01-2.22,1.78-4.04,4-4.05Zm-17.81-8.78c2.68-.02,4.84-2.21,4.83-4.88,0-.15,0-.3-.02-.45-.05-.02-.09-.05-.14-.07-.02-.01-.04-.02-.06-.03-.1-.05-.2-.1-.29-.16-.06-.03-.12-.07-.18-.1-.03-.02-.05-.03-.08-.05-.06-.04-.12-.07-.18-.11.08.31.12.63.12.97.01,2.22-1.78,4.03-4,4.04-.33,0-.66-.04-.97-.11.04.06.07.11.1.17.02.03.04.07.06.1.03.05.06.11.09.16.06.1.11.2.16.3,0,.02.02.03.02.05.02.05.05.1.07.15.15.01.3.02.45.02Zm6.6-4.7c-.28-.07-.56-.15-.83-.24,0,.02,0,.04,0,.05.02,3.2-2.57,5.81-5.76,5.83-.02,0-.04,0-.05,0,.1.27.18.55.25.83,3.5-.12,6.32-2.97,6.4-6.47Zm-23.02,9.19h0c-.17.02-.34.04-.51.06-.11,0-.21.02-.32.03.25,4.27,3.71,7.69,7.98,7.89,0-.1.01-.19.02-.29.02-.18.03-.37.06-.55h0c-3.88-.17-7.01-3.27-7.23-7.15Zm33.83.75c-.03-.18-.05-.36-.06-.55,0-.1-.02-.19-.02-.29-4.27.25-7.69,3.71-7.89,7.98.11,0,.21.01.32.02.17.01.34.03.51.05.17-3.88,3.27-7.01,7.15-7.23Zm-34.69-1.6c4.27-.25,7.69-3.71,7.89-7.98-.09,0-.17-.01-.25-.02-.2-.01-.39-.03-.58-.06-.17,3.88-3.27,7.01-7.15,7.23.03.18.05.36.06.54,0,.1.02.19.02.29Zm17.76-.1c4.27-.25,7.69-3.71,7.89-7.98-.09,0-.17-.01-.25-.02-.19-.01-.39-.03-.58-.06-.17,3.88-3.27,7.01-7.15,7.23.03.18.05.36.06.54,0,.1.02.19.02.29Zm.86.85h0c-.17.02-.34.04-.51.06-.11,0-.21.02-.32.03.25,4.27,3.71,7.69,7.98,7.89,0-.1.01-.19.02-.29.02-.18.03-.37.06-.55h0c-3.88-.17-7.01-3.27-7.23-7.15Zm-1.69.95c-.03-.18-.05-.36-.06-.55,0-.1-.02-.19-.02-.29-4.27.25-7.69,3.71-7.89,7.98.11,0,.21.01.32.02.17.01.34.03.51.05.17-3.88,3.27-7.01,7.15-7.23Zm-10.81-9.94c-.28-.07-.56-.15-.83-.24,0,.02,0,.04,0,.05.02,3.2-2.57,5.81-5.76,5.83-.02,0-.04,0-.05,0,.1.27.18.55.25.83,3.5-.12,6.32-2.97,6.4-6.47Zm-6.95,10.04c-.03-.18-.05-.36-.06-.55,0-.1-.02-.19-.02-.29-4.27.25-7.69,3.71-7.89,7.98.11,0,.21.01.32.02.17.01.34.03.51.05.17-3.88,3.27-7.01,7.15-7.23Zm-.46-6.01c.03.05.06.11.09.16.06.1.11.2.16.3,0,.02.02.03.02.05.02.05.05.1.07.15.15.01.3.02.45.02,2.68-.02,4.84-2.21,4.83-4.88,0-.15,0-.3-.02-.45-.05-.02-.09-.05-.14-.07-.02-.01-.04-.02-.06-.03-.1-.05-.2-.1-.29-.16-.06-.03-.12-.07-.18-.1-.03-.02-.05-.03-.08-.05-.06-.04-.12-.07-.18-.11.08.31.12.63.12.97.01,2.22-1.78,4.03-4,4.04-.33,0-.66-.04-.97-.11.04.06.07.11.1.17.02.03.04.07.06.1Zm-15.61,5.17h0c-.17.02-.34.04-.51.06-.11,0-.21.02-.32.03.25,4.27,3.71,7.69,7.98,7.89,0-.1.01-.19.02-.29.02-.18.03-.37.06-.55h0c-3.88-.17-7.01-3.27-7.23-7.15Zm33.98-39.16s-.04,0-.05,0c.1.27.18.55.25.83,3.5-.12,6.32-2.97,6.4-6.47-.23-.06-.45-.12-.67-.19h-.16c.02,3.2-2.57,5.81-5.76,5.83Zm-.81-1.62c.03.05.06.11.09.16.06.1.11.2.16.3,0,.02.02.03.02.05.02.05.05.1.07.14.15.01.3.02.45.02,2.68-.02,4.84-2.21,4.83-4.88h-.84c.01,2.22-1.78,4.04-4,4.05-.33,0-.66-.04-.97-.11.04.06.07.11.1.17l.06.1Zm9.56,30.81c.01-.28.02-.56.03-.83h-.12s0,0,0,0c-3.88-.17-7.01-3.27-7.23-7.15-.17.02-.34.04-.51.06-.11,0-.21.02-.32.03.25,4.27,3.71,7.69,7.98,7.89h.16Z"/></g><path class="cls-44" d="m610.01,269.83c.09.06.19.12.28.17,0,0,0,.01,0,.02,4.2,2.74,9.9,4.37,9.3,7.84.69-2.14,2.44-7.53,4.07-12.29,1.6-4.66,3.5-9.1,2.97-10.74-1.65-5.07-10.35-7.81-12.31-13.82-1.85-5.7,6.09-14.76,2.8-17.81-3.4-3.14-7,2.6-11.33,6.01-3.7,2.91-8.45,6.31-15.9,9.01.03,2.63.46,6.16,1.85,10.44,1.03,3.17,2.8,6.19,4.88,8.92,4.84,6.19,9.5,9.64,13.39,12.26Z"/><g class="cls-49"><path class="cls-37" d="m597.94,253.53c.03.13,2.91,11.65,3.85,15.08-2.8-4.47-4.43-9.75-3.85-15.08Z"/><path class="cls-37" d="m598.07,246.41c.73,3.71,5.83,17.72,7.02,19.64-2.78-2.71-7.92-11.48-7.02-19.64Z"/><path class="cls-37" d="m598.77,242c.84,5.1,2.59,8.4,6.14,15.19,0,0,2.31,4.29,2.31,4.29.04-.02-.08.02-.04.03-.02-.03-.06-.11-.08-.14.01,0,.12.11.13.12.02.03-.06.05-.04.04-3.78-2.73-9.3-11.58-8.42-19.53Z"/><path class="cls-37" d="m599.24,239.19c.98,4.76,7.24,13.36,10.13,18.02-5.09-4.37-10.76-11.36-10.13-18.02Z"/><path class="cls-37" d="m599.86,236.3c.92,4.44,6.99,10.85,11.28,17.77-4.96-4.3-11.84-11.31-11.28-17.77Z"/><path class="cls-37" d="m600.48,233.98c.91,4.19,7.35,8.47,12.87,17.02-5.85-5.09-13.29-11.42-12.87-17.02Z"/><path class="cls-37" d="m601.13,232.15c.85,3.55,9.27,6.99,14.51,15.29-7.35-6.25-14.77-10.89-14.51-15.29Z"/><path class="cls-37" d="m601.65,230.36c.47,1.74,2.63,2.18,6.92,4.75,3.27,1.96,7.02,5.38,9.22,8.82-8.52-7.15-16.26-10.22-16.13-13.57Z"/><path class="cls-37" d="m602.07,228.95s.02.22.24.44c1.53,1.38,10.93.66,17.5,10.78-7.32-6.37-12.37-7.24-16.48-9.69-1.52-.89-1.27-1.53-1.27-1.53Z"/><path class="cls-37" d="m602.62,227.94s-.06.29.79.3c1.48.03,11.66-2.03,18.69,8.64-3.66-3.21-5.99-4.77-11-6.48-4.93-1.7-8.5-1.52-8.48-2.46Z"/><path class="cls-37" d="m602.87,226.74s-.13.17.94-.21c8.63-3.07,15.51-.2,20.29,7.02-5.54-4.94-11-7.48-19.06-6.85-1.07.09-1.97.21-2.14.1-.04-.03-.03-.07-.03-.06Z"/><path class="cls-37" d="m603.21,225.47c4.96-4.42,15.13-5.45,22.68,5.15-5.1-4.53-9.75-7.3-17.06-6.57-2.5.26-4.53.87-5.62,1.42Z"/><path class="cls-37" d="m595.72,249.93c-1.36,3.41-3.43,7.35-8.29,11.06,3.64-6.31,5.39-8.31,8.29-11.06Z"/><path class="cls-37" d="m596.54,245.4c-3.74,8.38-10.95,11.64-12.41,11.99,1.55-.96,1.76-1.43,12.41-11.99Z"/><path class="cls-37" d="m597.12,241.79c-2.62,5.59-8.31,10.14-15.32,11.34.02.06-.04-.08-.02-.07.03,0,.18-.03.2-.03,0,0-.18.09-.18.09.01.01-.04-.12-.02-.07,10.59-6.26,13.14-8.89,15.35-11.27Z"/><path class="cls-37" d="m597.56,239.05c-2.88,5.91-10.32,8.21-16.84,9.09,5.87-2.95,13.36-5.52,16.84-9.09Z"/><path class="cls-37" d="m598.38,236.05c-2.81,5.66-11.03,7.48-17.48,8.38,4.42-2.22,14.33-5.17,17.48-8.38Z"/><path class="cls-37" d="m598.78,233.73c-2.36,4.66-9.94,5.74-18.21,6.87,8.56-4.09,15.11-3.76,18.21-6.87Z"/><path class="cls-37" d="m604.62,216.81c-3.93,10.15-6.23,19.73-7.6,29.85-.26,1.92-.62,3.93-1.04,5.82-1.09,4.94-1.39,10.74-.54,16.35.95-5.31,1.36-10.89,1.46-14.92.11-4.19.6-8.5,1.45-12.61,1.68-8.13,4.07-15.92,7.42-24.04l-1.15-.44Z"/><path class="cls-37" d="m619.89,257.78c3.32-1.4,17.1-4.83,19.24-4.91-3.62-.75-13.28-.14-19.24,4.91Z"/><path class="cls-37" d="m616.78,260.68c4.48-2.05,8.01-2.43,15.27-3.24,0,0,4.62-.46,4.62-.46,0,.04-.03-.07,0-.05-.04,0-.12,0-.16,0,.01,0,.15.04.16.04.04,0,0-.07,0-.05-4.16-1.53-14.09-1.18-19.91,3.75Z"/><path class="cls-37" d="m614.81,262.54c4.28-1.76,14.41-1.39,19.62-1.59-6.16-1.7-14.71-2.45-19.62,1.59Z"/><path class="cls-37" d="m612.86,264.57c4-1.63,12.29-.26,20.04-.55-6.03-1.63-15.23-3.33-20.04.55Z"/><path class="cls-37" d="m611.36,266.29c3.8-1.51,10.61,1.3,20.29,1.1-7.14-1.91-16.09-4.42-20.29-1.1Z"/><path class="cls-37" d="m610.26,267.78c3.25-1.22,10.46,3.6,19.8,3.32-8.85-2.47-16.47-5.87-19.8-3.32Z"/><path class="cls-37" d="m609.12,269.15c1.63-.56,3.12.91,7.44,2.93,3.29,1.54,7.99,2.68,11.87,2.59-10.18-2.92-16.73-7.4-19.31-5.52Z"/><path class="cls-37" d="m621.42,254.05c1.97-2.89,3.98-6.62,4.32-12.43-3.05,6.24-3.7,8.68-4.32,12.43Z"/><path class="cls-37" d="m618.28,257.11c4.62-7.42,3.36-14.85,2.86-16.19.07,1.74-.19,2.16-2.86,16.19Z"/><path class="cls-37" d="m615.73,259.49c3.02-5.04,3.59-11.96.8-18.14.06-.02-.08.01-.06.02,0,.02.07.15.09.18,0,0-.02-.19-.02-.19.02,0-.12.04-.06.02.69,11.69-.02,15.11-.73,18.12Z"/><path class="cls-37" d="m613.81,261.29c3.14-5.42.99-12.52-1.78-18.14.8,6.21,2.75,13.49,1.78,18.14Z"/><path class="cls-37" d="m611.87,263.53c2.98-5.23.17-12.42-2.55-17.98.6,4.67,3.41,13.79,2.55,17.98Z"/><path class="cls-37" d="m610.26,265.09c2.42-4.35-.76-10.91-4.27-18.04,1.33,8.93,5.07,13.94,4.27,18.04Z"/><path class="cls-37" d="m608.76,266.84c1.88-3.49-1.94-9.07-6.19-17.52,1.33,9.45,6.84,13.9,6.19,17.52Z"/><path class="cls-37" d="m607.52,268.13c1.38-2.72-3.65-6.96-8.53-16.58.64,4.4,2.68,8.44,5.48,11.79,2.11,2.51,3.27,3.34,3.05,4.79Z"/><path class="cls-37" d="m600,278.71c5.92-8.51,12.27-15.43,19.53-21.9,1.38-1.23,2.77-2.58,4.05-3.92,3.32-3.5,7.74-6.81,12.62-9.13-3.69,3.58-7.87,6.87-11.01,9.1-3.26,2.32-6.4,5-9.19,7.86-5.52,5.66-10.41,11.69-15.04,18.66l-.96-.67Z"/></g><path class="cls-45" d="m605.72,229.25c.08-.07.17-.15.25-.21,0,0,.01,0,.02,0,3.91-3.15,7.22-8.07,10.33-6.43-1.83-1.32-6.41-4.65-10.43-7.67-3.94-2.96-7.57-6.14-9.3-6.14-5.33,0-10.63,7.43-16.95,7.43-5.99,0-12.16-10.35-16.07-8.16-4.04,2.26.31,7.46,2.21,12.64,1.62,4.42,3.39,9.99,3.66,17.9,2.51.78,6,1.47,10.5,1.47,3.33,0,6.75-.75,9.99-1.89,7.38-2.69,12.11-6.05,15.79-8.95Z"/><g class="cls-48"><path class="cls-9" d="m612.22,219.97s-.03.05-.03.07v.31c-.18.07-.31.25-.31.44,0,.26.21.48.48.48s.48-.21.48-.48-.19-.46-.44-.48v-.24l.26-.26c-.06-.04-.11-.08-.17-.12l-.27.27Z"/><path class="cls-9" d="m610.44,219.83v.5c-.22.05-.37.24-.37.46,0,.26.21.48.48.48s.48-.21.48-.48c0-.22-.16-.42-.37-.46v-.45l.88-.88c-.06-.04-.11-.08-.17-.12l-.89.89s-.03.05-.03.07Z"/><path class="cls-9" d="m609.48,224.65c-.05-.21-.24-.37-.46-.37-.26,0-.48.21-.48.48s.21.48.48.48c.22,0,.41-.16.46-.37h.86c.08-.07.15-.15.23-.22h-1.08Z"/><path class="cls-9" d="m573.14,238.78s.05.03.07.03h3.86s.05-.01.07-.03l1.15-1.15s.03-.05.03-.07v-1.45l4.67-4.67h6.36l1.29,1.29s.05.03.07.03h6.62s.05-.01.07-.03l4.05-4.05c.09.08.2.13.32.13.26,0,.48-.21.48-.48s-.21-.48-.48-.48-.48.21-.48.48c0,.06.01.12.03.17l-4.05,4.05h-6.54l-1.29-1.29s-.05-.03-.07-.03h-6.45s-.05.01-.07.03l-4.74,4.74s-.03.05-.03.07v1.45l-1.09,1.08h-3.77l-.84-.84s-.05-.03-.07-.03h-3.54c0,.07,0,.14,0,.21h3.49l.84.84Z"/><path class="cls-9" d="m573.91,237.69s.05.03.07.03h2.6s.05-.01.07-.03l.7-.7s.03-.05.03-.07v-1.5l5.39-5.39h3.32s.05-.01.07-.03l.71-.71h4.6l.82.82s.05.03.07.03h4.37s.05-.01.07-.03l1.23-1.23s.03-.05.03-.07v-1.53l1.14-1.14c.08.05.17.08.27.08.26,0,.48-.21.48-.48s-.21-.48-.48-.48-.48.21-.48.48c0,.09.02.17.07.24l-1.18,1.18s-.03.05-.03.07v1.53l-1.17,1.17h-4.29l-.82-.82s-.05-.03-.07-.03h-4.68s-.05.01-.07.03l-.71.71h-3.32s-.05.01-.07.03l-5.45,5.45s-.03.05-.03.07v1.5l-.64.64h-2.51l-.48-.48s-.05-.03-.07-.03h-4.69c0,.07,0,.14,0,.21h4.64l.48.48Z"/><path class="cls-9" d="m570.68,235.19h5.87s.05-.01.07-.03l5.88-5.88h3.01s.05-.01.07-.03l1.1-1.1h.16c.05.22.24.37.46.37.26,0,.48-.21.48-.48s-.21-.48-.48-.48c-.22,0-.42.16-.46.37h-.2s-.05.01-.07.03l-1.1,1.1h-3.01s-.05.01-.07.03l-5.88,5.88h-5.79l-1.95-1.98c0,.11.02.21.03.32l1.8,1.84s.05.03.07.03Z"/><path class="cls-9" d="m571.06,234.27h5.35s.05-.01.07-.03l7.38-7.38c.08.06.18.09.27.09.26,0,.48-.21.48-.48s-.21-.48-.48-.48-.48.21-.48.48c0,.08.02.16.06.23l-7.35,7.35h-5.27l-2.47-2.51c.01.11.03.22.04.33l2.32,2.35s.05.03.07.03Z"/><path class="cls-9" d="m571.03,229.61s0,0,0,0h4.93l.45.45s.05.03.07.03h1.31s.05-.01.07-.03l.79-.79c.08.06.18.1.28.1.26,0,.48-.21.48-.48s-.21-.48-.48-.48-.48.21-.48.48c0,.08.02.15.06.22l-.77.77h-1.22l-.45-.45s-.05-.03-.07-.03h-4.92c-.07-.07-.14-.13-.21-.2l.2.2-.04.2Z"/><path class="cls-9" d="m571.46,228.97s.05.03.07.03h5.06c.05.22.24.37.46.37.26,0,.48-.21.48-.48s-.21-.48-.48-.48c-.22,0-.42.16-.46.37h-5.02l-1.54-1.54s-.05-.03-.07-.03h-2.77s.02.09.03.13c0,.03.01.05.02.08h2.67l1.54,1.54Z"/><path class="cls-9" d="m570.96,229.58s.05.03.07.03h0s-.05-.02-.07-.03c-.68-.72-1.41-1.51-1.52-1.59-.05,0-1.92,0-2.07.01,0,.01,0,.03,0,.04h2.03l1.54,1.54Z"/><path class="cls-9" d="m569.56,227.95s.04.01.07.03l.05.07c.18.16.52.52,1.2,1.16l-1.34-1.34s-.05-.03-.07-.03h-2.12s.02.08.03.11c.22,0,2.15,0,2.2,0Z"/><path class="cls-9" d="m569.63,227.98s-.04-.03-.07-.03c-.05,0-1.98,0-2.2,0,0,.02,0,.03.01.05.16,0,2.02,0,2.07-.01.11.09.84.87,1.52,1.59.02.02.04.03.07.03l.04-.2-.2-.2c-.68-.64-1.02-1-1.2-1.16l-.05-.07Z"/><path class="cls-9" d="m571.72,228.36s.05.03.07.03h3.54s.05-.01.07-.03l.44-.44h3.88l.5.5c-.06.08-.09.18-.09.28,0,.26.21.48.48.48s.48-.21.48-.48-.21-.48-.48-.48c-.08,0-.16.02-.23.06l-.54-.54s-.05-.03-.07-.03h-3.97s-.05.01-.07.03l-.44.44h-3.45l-1.52-1.52s-.05-.03-.07-.03h-3.19c.02.07.04.14.05.21h3.1l1.52,1.52Z"/><path class="cls-9" d="m575.52,227.2s.05.03.07.03h6.64s.05-.01.07-.03l2.05-2.05c.08.07.19.1.29.1.26,0,.48-.21.48-.48s-.21-.48-.48-.48-.48.21-.48.48c0,.07.02.15.05.22l-2.03,2.03h-6.56l-.98-.98s-.05-.03-.07-.03h-7.7c.02.05.03.11.05.16,0,.01,0,.03.01.04h7.6l.98.98Z"/><path class="cls-9" d="m570.28,219.58l1.71-1.71h3.77l.93.93s.05.03.07.03h2.64l.79.79s.05.03.07.03h.6s.05-.01.07-.03l.56-.56h1.64l1.1,1.1c-.04.07-.06.15-.06.23,0,.26.21.48.48.48s.48-.21.48-.48-.21-.48-.48-.48c-.1,0-.19.03-.28.09l-1.12-1.12s-.05-.03-.07-.03h-1.73s-.05.01-.07.03l-.56.56h-.51l-.79-.79s-.05-.03-.07-.03h-2.64l-.93-.93s-.05-.03-.07-.03h-3.85s-.05.01-.07.03l-1.71,1.71h-5.74c.03.07.06.14.09.21h5.69s.05-.01.07-.03Z"/><path class="cls-9" d="m575.65,225.01l.35-.35c.08.05.16.08.25.08.26,0,.48-.21.48-.48s-.21-.48-.48-.48-.48.21-.48.48c0,.09.03.18.08.25l-.32.32h-9.01c.02.07.04.13.06.2,0,0,0,0,0,.01h8.98s.05-.01.07-.03Z"/><path class="cls-9" d="m574.8,224.39l.8-.8h2.11l.32.32c-.1.09-.16.22-.16.35,0,.26.21.48.48.48s.48-.21.48-.48-.21-.48-.48-.48c-.04,0-.09,0-.13.02l-.39-.39s-.05-.03-.07-.03h-2.2s-.05.01-.07.03l-.8.8h-8.36c.02.07.04.14.07.21h8.33s.05-.01.07-.03Z"/><path class="cls-9" d="m572.98,223.86l.32-.32c.08.05.16.07.25.07.26,0,.48-.21.48-.48s-.21-.48-.48-.48-.48.21-.48.48c0,.09.03.18.08.26l-.29.29h-6.72c.02.07.05.14.07.21h6.69s.05-.01.07-.03Z"/><path class="cls-9" d="m572.29,223.2l.95-.95h1.81s.05-.01.07-.03l.73-.73h1.74l.43.43c-.09.09-.14.21-.14.33,0,.26.21.48.48.48s.48-.21.48-.48-.21-.48-.48-.48c-.05,0-.11,0-.16.03l-.49-.49s-.05-.03-.07-.03h-1.82s-.05.01-.07.03l-.73.73h-1.81s-.05.01-.07.03l-.95.95h-6.26s0,0,0,0c.02.07.05.14.07.21h6.23s.05-.01.07-.03Z"/><path class="cls-9" d="m571.87,222.57l1.08-1.08h1.75s.05-.01.07-.03l.64-.64h3.22l1.18,1.18c-.05.08-.08.16-.08.25,0,.26.21.48.48.48s.48-.21.48-.48-.21-.48-.48-.48c-.09,0-.18.03-.25.08l-1.21-1.21s-.05-.03-.07-.03h-3.31s-.05.01-.07.03l-.64.64h-1.75s-.05.01-.07.03l-1.08,1.08h-6.08c.03.07.05.14.08.21h6.04s.05-.01.07-.03Z"/><path class="cls-9" d="m571.81,221.78l1.42-1.42h.5c.05.22.24.37.46.37.26,0,.48-.21.48-.48s-.21-.48-.48-.48c-.22,0-.42.16-.46.37h-.55s-.05.01-.07.03l-1.42,1.42h-6.33c.03.07.06.14.08.21h6.29s.05-.01.07-.03Z"/><path class="cls-9" d="m571.54,220.99l1.55-1.55h2l.79.79s.05.03.07.03h2.87l1.09,1.09s.05.03.07.03h1.44l.63.63c-.05.08-.08.16-.08.25,0,.26.21.48.48.48s.48-.21.48-.48-.21-.48-.48-.48c-.09,0-.18.03-.25.08l-.66-.66s-.05-.03-.07-.03h-1.44l-1.09-1.09s-.05-.03-.07-.03h-2.87l-.79-.79s-.05-.03-.07-.03h-2.08s-.05.01-.07.03l-1.55,1.55h-6.38s.04.09.06.13c.01.03.02.05.03.08h6.33s.05-.01.07-.03Z"/><path class="cls-9" d="m570.62,220.29l1.64-1.64h3.09l.85.85s.05.03.07.03h2.79l.94.94s.05.03.07.03h1.54c.05.22.24.37.46.37.26,0,.48-.21.48-.48s-.21-.48-.48-.48c-.22,0-.42.16-.46.37h-1.5l-.94-.94s-.05-.03-.07-.03h-2.79l-.85-.85s-.05-.03-.07-.03h-3.17s-.05.01-.07.03l-1.64,1.64h-5.76s0,0,0,.01c.03.06.06.13.08.19h5.71s.05-.01.07-.03Z"/><path class="cls-9" d="m585.57,214.95v7.08l-.56.51c-.09-.1-.22-.16-.35-.16-.26,0-.48.21-.48.48s.21.48.48.48.48-.21.48-.48c0-.05,0-.09-.02-.14l.63-.57s.03-.05.03-.08v-7.17s-.01-.05-.03-.07l-.41-.44c-.06.04-.13.07-.19.1l.42.45Z"/><path class="cls-9" d="m569.49,217.52l2.42-2.42h5.09c-.1-.07-.2-.14-.3-.21h-4.83s-.05.01-.07.03l-2.42,2.42h-5.64s.04.09.07.14c.01.02.02.05.03.07h5.58s.05-.01.07-.03Z"/><path class="cls-9" d="m586.24,214.73v10.3s.01.05.03.07l.64.64c-.05.08-.08.16-.08.25,0,.26.21.48.48.48s.48-.21.48-.48-.21-.48-.48-.48c-.09,0-.18.03-.25.08l-.61-.61v-10.3s-.01-.05-.03-.07l-.58-.58c-.06.04-.12.07-.18.11l.59.59Z"/><path class="cls-9" d="m569.03,216.79l2.36-2.36h4.67c-.09-.07-.18-.14-.27-.21h-4.45s-.05.01-.07.03l-2.36,2.36h-5.53c.03.06.06.13.09.19,0,0,0,.01,0,.02h5.47s.05-.01.07-.03Z"/><path class="cls-9" d="m563.38,216.61h0c.03.06.06.13.09.19-.03-.07-.06-.13-.09-.19Z"/><path class="cls-9" d="m587.57,221.76s.01.05.03.07l.95.95s.05.03.07.03h1.98l.74.74v1.34l-1.88,1.88s-.03.05-.03.07v1.07s.01.05.03.07l.36.36s.05.03.07.03h1.51l1.02,1.02s.05.03.07.03h2.41s.05-.01.07-.03l.98-.98c.08.06.18.09.27.09.26,0,.48-.21.48-.48s-.21-.48-.48-.48-.48.21-.48.48c0,.08.02.16.06.23l-.96.96h-2.33l-1.02-1.02s-.05-.03-.07-.03h-1.51l-.3-.3v-.99l1.88-1.88s.03-.05.03-.07v-1.43s-.01-.05-.03-.07l-.8-.8s-.05-.03-.07-.03h-1.98l-.89-.89v-7.86s-.01-.05-.03-.07l-.49-.73c-.06.04-.11.08-.17.12l.48.72v7.86Z"/><path class="cls-9" d="m590.81,219.82c-.09-.08-.2-.13-.32-.13-.26,0-.48.21-.48.48s.21.48.48.48.48-.21.48-.48c0-.06-.01-.12-.04-.18l.16-.16s.03-.05.03-.07v-9.47s0,0,0,0c-.07.04-.14.09-.21.13v9.3l-.1.1Z"/><path class="cls-9" d="m592.01,213.35l1.32,1.32v2.05c-.22.05-.37.24-.37.46,0,.26.21.48.48.48s.48-.21.48-.48c0-.22-.16-.42-.37-.46v-2.09s-.01-.05-.03-.07l-1.32-1.32v-3.56c-.07.04-.14.08-.21.12v3.49s.01.05.03.07Z"/><path class="cls-9" d="m598.88,218.41l-2.27,2.27h-1.23s-.05.01-.07.03l-1.15,1.15s-.03.05-.03.07v3.6l-.37.37c-.09-.08-.2-.13-.32-.13-.26,0-.48.21-.48.48s.21.48.48.48.48-.21.48-.48c0-.06-.01-.12-.03-.18l.43-.43s.03-.05.03-.07v-3.6l1.08-1.08h1.23s.05-.01.07-.03l2.33-2.33s.03-.05.03-.07v-3.02s-.01-.05-.03-.07l-6.1-6.1c-.07.03-.13.06-.2.1l6.12,6.12v2.93Z"/><path class="cls-9" d="m600.94,216.19v5.51l-.65.65s-.03.05-.03.07v4.54l-.46.46c-.09-.08-.2-.12-.32-.12-.26,0-.48.21-.48.48s.21.48.48.48.48-.21.48-.48c0-.06-.01-.12-.04-.18l.51-.51s.03-.05.03-.07v-4.54l.65-.65s.03-.05.03-.07v-5.51l2.8-2.8c-.06-.04-.11-.08-.17-.12l-2.8,2.8s-.03.05-.03.07Z"/><path class="cls-9" d="m604.53,214.18v6.67l-2.19,2.19s-.03.05-.03.07v.83c-.22.05-.37.24-.37.46,0,.26.21.48.48.48s.48-.21.48-.48c0-.22-.16-.42-.37-.46v-.79l2.19-2.19s.03-.05.03-.07v-6.67l.12-.12c-.06-.04-.11-.08-.17-.12l-.12.12s-.03.05-.03.07Z"/><path class="cls-9" d="m601.74,231.74c-.22,0-.42.16-.46.37h-2.22s-.05.01-.07.03l-1.35,1.35h-8.73s-.05.01-.07.03l-.48.48c-.08-.07-.19-.11-.3-.11-.26,0-.48.21-.48.48s.21.48.48.48.48-.21.48-.48c0-.07-.02-.14-.05-.21l.47-.47h8.73s.05-.01.07-.03l1.35-1.35h2.18c.03.12.11.22.21.29.24-.16.48-.33.72-.49-.05-.21-.23-.38-.46-.38Z"/><path class="cls-9" d="m573.36,231.78c.26,0,.48-.21.48-.48s-.21-.48-.48-.48c-.23,0-.42.15-.46.37h-4.73c.01.07.02.14.03.21h4.7c.05.22.24.37.46.37Z"/><path class="cls-9" d="m573.36,226.85c-.26,0-.48.21-.48.48s.21.48.48.48.48-.21.48-.48-.21-.48-.48-.48Z"/><path class="cls-9" d="m567.38,228.68h1.93l1.49,1.49h4.88s.05.01.07.03l1.26,1.26h.33c.05-.22.24-.37.46-.37.26,0,.48.21.48.48s-.21.48-.48.48c-.22,0-.42-.16-.46-.37h-.37s-.05-.01-.07-.03l-1.26-1.26h-4.88s-.05-.01-.07-.03l-1.47-1.49h-1.54l-.29-.18Z"/><path class="cls-9" d="m575.66,226.03c-.05.08-.08.16-.08.25,0,.26.21.48.48.48s.48-.21.48-.48-.21-.48-.48-.48c-.09,0-.18.03-.25.08l-.45-.45s-.05-.03-.07-.03h-8.58c.02.07.04.14.06.21h8.47l.42.42Z"/><path class="cls-9" d="m568.19,208.74h-5.81c-.05.05-.12.12-.2.21h6.44c-.14-.07-.28-.14-.42-.21Z"/><path class="cls-9" d="m604.97,222.21c0,.26.21.48.48.48s.48-.21.48-.48c0-.22-.16-.42-.37-.46v-7.13c-.07-.05-.14-.1-.21-.15v7.28c-.22.05-.37.24-.37.46Z"/><path class="cls-9" d="m599.67,218.72l-2.71,2.71h-1.03s-.05.01-.07.03l-1.05,1.05s-.03.05-.03.07v4.12l-1.01,1.01c-.09-.09-.21-.14-.33-.14-.26,0-.48.21-.48.48s.21.48.48.48.48-.21.48-.48c0-.05,0-.11-.03-.16l1.07-1.07s.03-.05.03-.07v-4.12l.99-.99h1.03s.05-.01.07-.03l2.77-2.77s.03-.05.03-.07v-5.44s-.01-.05-.03-.07l-4.8-4.79c-.08.02-.16.04-.24.06l4.85,4.85v5.35Z"/><path class="cls-9" d="m605.78,224c-.09-.09-.21-.13-.33-.13-.26,0-.48.21-.48.48s.21.48.48.48.48-.21.48-.48c0-.06-.01-.11-.03-.17l.5-.5s.03-.05.03-.07v-8.34c-.07-.05-.14-.1-.21-.15v8.45l-.44.44Z"/><path class="cls-9" d="m606.5,224.93c0,.26.21.48.48.48s.48-.21.48-.48c0-.22-.16-.42-.37-.46v-8.72c-.07-.05-.14-.1-.21-.15v8.88c-.22.05-.37.24-.37.46Z"/><path class="cls-9" d="m604.56,229.29c-.08-.05-.16-.08-.25-.08-.26,0-.48.21-.48.48s.21.48.48.48.48-.21.48-.48c0-.09-.03-.18-.08-.25l3.38-3.38s.03-.05.03-.07v-9.84c-.07-.05-.14-.1-.21-.15v9.95l-3.35,3.35Z"/><path class="cls-9" d="m588.3,221.13l1,1s.05.03.07.03h1.84c.08.06.43.41.79.81v2.73l-1.06,1.06c-.08-.07-.19-.1-.29-.1-.26,0-.48.21-.48.48s.21.48.48.48.48-.21.48-.48c0-.07-.02-.14-.05-.21l1.11-1.11s.03-.05.03-.07v-2.81s0-.05-.03-.07c-.81-.9-.9-.9-.95-.9h-1.81l-.94-.94v-8.92s-.06.04-.09.06c-.04.03-.08.06-.12.09v8.81s.01.05.03.07Z"/><path class="cls-9" d="m569.93,212.93c.26,0,.48-.21.48-.48s-.21-.48-.48-.48c-.21,0-.39.14-.45.33h-7.97c.02.07.03.14.05.22h7.91c.03.23.23.41.47.41Z"/><path class="cls-9" d="m588.82,220.52l.71.71s.05.03.07.03h2.13l1.03,1.03v1.17s.01.05.03.07l.24.24c-.05.08-.08.16-.08.25,0,.26.21.48.48.48s.48-.21.48-.48-.21-.48-.48-.48c-.09,0-.18.03-.25.08l-.21-.21v-1.17s-.01-.05-.03-.07l-1.1-1.1s-.05-.03-.07-.03h-2.12l-.65-.65v-8.68c-.07.05-.14.1-.21.15v8.58s.01.05.03.07Z"/><path class="cls-9" d="m567.71,215.52c.26,0,.48-.21.48-.48s-.21-.48-.48-.48c-.22,0-.42.16-.46.37h-4.69s.04.09.07.13c.01.03.02.05.04.07h4.59c.05.22.24.37.46.37Z"/><path class="cls-9" d="m562.62,215.08s.02.05.04.07h0s-.02-.05-.04-.07Z"/><path class="cls-9" d="m562.55,214.94h0s.04.09.07.13c-.02-.05-.04-.09-.07-.13Z"/><path class="cls-9" d="m584.65,227.57c-.26,0-.48.21-.48.48s.21.48.48.48.48-.21.48-.48-.21-.48-.48-.48Z"/><path class="cls-9" d="m582.43,234.42c.22-.05.37-.24.37-.46,0-.26-.21-.48-.48-.48s-.48.21-.48.48c0,.22.16.42.37.46v1.87s.01.05.03.07l1.2,1.2s.05.03.07.03h5.76c.05.22.24.37.46.37.26,0,.48-.21.48-.48s-.21-.48-.48-.48c-.22,0-.42.16-.46.37h-5.71l-1.14-1.14v-1.83Z"/><path class="cls-9" d="m574.2,236.42c.26,0,.48-.21.48-.48s-.21-.48-.48-.48c-.22,0-.42.16-.46.37h-5c0,.07,0,.14.01.21h4.98c.05.22.24.37.46.37Z"/><path class="cls-9" d="m576.41,235.47c-.26,0-.48.21-.48.48s.21.48.48.48.48-.21.48-.48-.21-.48-.48-.48Z"/><path class="cls-9" d="m581.71,237.92c.22-.05.37-.24.37-.46,0-.26-.21-.48-.48-.48s-.48.21-.48.48c0,.22.16.42.37.46v1.87s.01.05.03.07l.24.24c.09,0,.18-.01.27-.02l-.34-.34v-1.83Z"/><path class="cls-9" d="m603.88,214.05v4.44l-2.33,2.33v5.29l.91.91c-.03.06-.04.13-.04.2,0,.26.21.48.48.48s.48-.21.48-.48-.21-.48-.48-.48c-.11,0-.22.04-.3.11l-.83-.83v-5.11l2.33-2.33v-4.44l.34-.34c-.06-.04-.12-.09-.18-.13l-.35.35-.03.03Z"/><path class="cls-9" d="m580.58,217.76c-.09,0-.18.03-.25.07l-1.13-1.13h-6.64c-.05-.21-.24-.37-.46-.37-.26,0-.48.21-.48.48s.21.48.48.48c.22,0,.41-.16.46-.37h6.55l1.06,1.06c-.04.07-.07.16-.07.25,0,.26.21.48.48.48s.48-.21.48-.48-.21-.48-.48-.48Z"/><path class="cls-9" d="m599.42,222.64c-.26,0-.48.21-.48.48,0,.09.03.18.07.25l-.91.91c-.07-.05-.16-.07-.25-.07-.26,0-.48.21-.48.48s.21.48.48.48.48-.21.48-.48c0-.09-.03-.17-.07-.25l.91-.91c.07.04.16.07.25.07.26,0,.48-.21.48-.48s-.21-.48-.48-.48Z"/><path class="cls-9" d="m610.58,223.74c-.05-.21-.24-.37-.46-.37-.26,0-.48.21-.48.48s.21.48.48.48c.22,0,.41-.16.46-.37h.9c.08-.07.16-.15.23-.22h-1.13Z"/><path class="cls-9" d="m615.34,222.38l.34-.34c-.06-.04-.12-.09-.18-.13l-.47.47c.11,0,.21,0,.31,0Z"/><path class="cls-9" d="m593.77,235.95c0-.26-.21-.48-.48-.48s-.48.21-.48.48.21.48.48.48c.09,0,.18-.03.25-.07l.58.58c.07-.03.15-.06.22-.09l-.64-.64c.04-.07.07-.16.07-.25Z"/><path class="cls-9" d="m580.4,238.96v-2.51c.21-.05.37-.24.37-.46,0-.26-.21-.48-.48-.48s-.48.21-.48.48c0,.22.16.41.37.46v2.29h-.96l-1.46,1.46c.1,0,.2,0,.3.01l1.25-1.25h1.09Z"/><path class="cls-9" d="m610.12,222.4c-.04.07-.06.14-.06.22,0,.26.21.48.48.48s.48-.21.48-.48-.21-.48-.48-.48c-.1,0-.2.03-.27.09l-.74-.74v-3.96c-.07-.05-.15-.11-.22-.16v4.22l.82.82Z"/><path class="cls-9" d="m602.92,229.1l1.48-1.48c.07.04.16.07.25.07.26,0,.48-.21.48-.48s-.21-.48-.48-.48-.48.21-.48.48c0,.09.03.18.07.25l-1.54,1.54v1.94l.78.78c.06-.04.12-.09.18-.13l-.74-.74v-1.76Z"/><path class="cls-9" d="m596.35,225.58v-1.67l2.8-2.8c.07.05.16.08.25.08.26,0,.48-.21.48-.48s-.21-.48-.48-.48-.48.21-.48.48c0,.09.03.17.07.24l-2.84,2.84-.03.03v1.76c-.21.05-.37.24-.37.46,0,.26.21.48.48.48s.48-.21.48-.48c0-.22-.16-.41-.37-.46Z"/><path class="cls-9" d="m600.58,214.37c0,.26.21.48.48.48s.48-.21.48-.48c0-.22-.16-.41-.37-.46v-3.19c-.07-.05-.15-.11-.22-.16v3.36c-.21.05-.37.24-.37.46Z"/><path class="cls-9" d="m595.67,214.85l-1.84-1.84c.04-.07.07-.16.07-.25,0-.26-.21-.48-.48-.48s-.48.21-.48.48.21.48.48.48c.09,0,.18-.03.25-.07l1.77,1.77v3.83l-1.78,1.78c-.07-.04-.15-.07-.24-.07-.26,0-.48.21-.48.48s.21.48.48.48.48-.21.48-.48c0-.1-.03-.18-.08-.26l1.84-1.84v-4.01Z"/><path class="cls-9" d="m584.55,217.67h-2.06l-1.87-1.85c-.1,0-.19.02-.29.02l2.06,2.05h2.36v-.11c.04-1.39.05-3.99.04-4.38-.07.03-.15.07-.22.1,0,.57-.01,3.43-.03,4.16Z"/><path class="cls-9" d="m570.33,210.59h-8.89c-.01.07-.02.15-.02.22h9.2c-.1-.07-.19-.15-.29-.22Z"/><path class="cls-9" d="m586.84,214.18v7.93s.01.05.03.07l1.93,1.93s.05.03.07.03h.65c.05.22.24.37.46.37.26,0,.48-.21.48-.48s-.21-.48-.48-.48c-.22,0-.42.16-.46.37h-.61l-1.86-1.87v-7.93s-.01-.05-.02-.07l-.35-.57c-.06.04-.12.08-.18.11l.34.56Z"/><path class="cls-9" d="m568.94,209.61h-7.2c-.03.07-.07.14-.1.22h7.63c-.11-.08-.22-.15-.33-.22Z"/><polygon class="cls-9" points="561.98 213.74 561.98 213.74 561.98 213.74 561.98 213.74"/><path class="cls-9" d="m561.98,213.74s.02.03.02.05h3.09c.03.23.23.41.47.41.26,0,.48-.21.48-.48s-.21-.48-.48-.48c-.21,0-.39.14-.45.33h-3.2c.02.06.04.11.07.17h0Z"/><path class="cls-9" d="m561.98,213.74s.02.03.02.05h0s-.02-.03-.02-.05Z"/><path class="cls-9" d="m592.55,234.31l-1.52,1.52h-6.52c-.05-.21-.24-.37-.46-.37-.26,0-.48.21-.48.48s.21.48.48.48c.22,0,.41-.16.46-.37h6.61l1.52-1.52h4.86v.85c.07-.04.15-.08.22-.11v-.96h-5.17Z"/><path class="cls-9" d="m612.39,222.15c-.26,0-.48.21-.48.48s.21.48.48.48.48-.21.48-.48c0-.09-.03-.18-.07-.25l1.42-1.42c-.06-.04-.12-.09-.18-.13l-1.39,1.39c-.07-.04-.16-.07-.25-.07Z"/></g><path class="cls-5" d="m605.72,229.25c.08-.07.17-.15.25-.21,0,0,.01,0,.02,0,3.91-3.15,7.22-8.07,10.33-6.43-1.83-1.32-6.41-4.65-10.43-7.67-3.94-2.96-7.57-6.14-9.3-6.14-5.33,0-10.63,7.43-16.95,7.43-5.99,0-12.16-10.35-16.07-8.16-4.04,2.26.31,7.46,2.21,12.64,1.62,4.42,3.39,9.99,3.66,17.9,2.51.78,6,1.47,10.5,1.47,3.33,0,6.75-.75,9.99-1.89,7.38-2.69,12.11-6.05,15.79-8.95Z"/><path class="cls-2" d="m565.8,220.79c-.04-.1-.09-.21-.13-.3,0,0,0,0,0-.01-1.79-4.69-5.44-9.36-2.92-11.81-1.82,1.33-6.4,4.66-10.51,7.55-4.03,2.83-8.18,5.3-8.71,6.95-1.65,5.07,3.79,12.4,1.83,18.42-1.85,5.7-13.6,8.36-12.73,12.76.9,4.54,7.19,2.01,12.7,1.8,4.71-.18,10.54-.14,18.16,2.05,1.52-2.15,3.25-5.25,4.64-9.54,1.03-3.17,1.37-6.65,1.29-10.08-.27-7.85-2.02-13.39-3.63-17.79Z"/><path class="cls-4" d="m545.42,256.14c-.11,0-.22.02-.32.03,0,0,0,0-.01-.01-5.01.25-10.58,2.28-12.13-.87.7,2.14,2.46,7.53,3.93,12.33,1.45,4.71,2.51,9.42,3.91,10.43,4.31,3.13,12.97.23,18.08,3.95,4.85,3.52,3.75,15.52,8.2,16.05,4.6.54,4.14-6.22,5.64-11.52,1.29-4.53,3.13-10.07,7.56-16.63-1.57-2.11-3.99-4.71-7.63-7.36-2.69-1.96-5.9-3.36-9.19-4.35-7.55-2.17-13.35-2.22-18.04-2.04Z"/><path class="cls-3" d="m572.74,286.45c-.03.11-.05.22-.07.32,0,0-.01,0-.02,0-1.31,4.84-1.1,10.77-4.58,11.27,2.25,0,7.92,0,12.94.07,4.93.08,9.73.52,11.13-.5,4.31-3.13,4.23-12.26,9.34-15.98,4.85-3.52,15.92,1.23,17.8-2.84,1.94-4.21-4.64-5.86-9.22-8.92-3.91-2.62-8.61-6.09-13.48-12.33-2.49.84-5.72,2.34-9.36,4.99-2.69,1.96-5.02,4.58-6.97,7.4-4.39,6.51-6.24,12.01-7.52,16.52Z"/><path class="cls-1" d="m610.01,269.83c.09.06.19.12.28.17,0,0,0,.01,0,.02,4.2,2.74,9.9,4.37,9.3,7.84.69-2.14,2.44-7.53,4.07-12.29,1.6-4.66,3.5-9.1,2.97-10.74-1.65-5.07-10.35-7.81-12.31-13.82-1.85-5.7,6.09-14.76,2.8-17.81-3.4-3.14-7,2.6-11.33,6.01-3.7,2.91-8.45,6.31-15.9,9.01.03,2.63.46,6.16,1.85,10.44,1.03,3.17,2.8,6.19,4.88,8.92,4.84,6.19,9.5,9.64,13.39,12.26Z"/><polygon class="cls-16" points="556.51 323.66 549.04 314.51 547.32 314.51 547.32 328.19 549.74 328.19 549.74 319.04 557.22 328.19 558.94 328.19 558.94 314.51 556.51 314.51 556.51 323.66"/><polygon class="cls-16" points="568.25 322 572.56 322 572.56 319.67 568.25 319.67 568.25 316.84 573.88 316.84 573.88 314.51 565.82 314.51 565.82 328.19 574.07 328.19 574.07 325.86 568.25 325.86 568.25 322"/><path class="cls-16" d="m585.93,314.32c-3.9,0-6.84,3.02-6.84,7.03s2.94,7.03,6.84,7.03,6.84-3.02,6.84-7.03-2.94-7.03-6.84-7.03Zm4.42,7.03c0,2.68-1.9,4.7-4.42,4.7s-4.42-2.02-4.42-4.7,1.9-4.7,4.42-4.7,4.42,2.02,4.42,4.7Z"/><polygon class="cls-16" points="609.79 314.51 604.88 322.29 599.96 314.51 598.22 314.51 598.22 328.19 600.64 328.19 600.64 320.02 604.07 325.38 605.68 325.38 609.11 320.02 609.11 328.19 611.53 328.19 611.53 314.51 609.79 314.51"/><path class="cls-39" d="m200.72,308.58h11.7c6.65,0,9.58,2.34,9.58,6.98s-2.87,6.74-9.72,6.74h-5.88v5.73h-5.67v-19.45Zm11.44,10.11c3.04,0,4.46-.95,4.46-2.96s-1.27-2.96-4.43-2.96h-5.79v5.91h5.76Z"/><path class="cls-39" d="m227.38,308.58h12.24c7.21,0,9.46,2.28,9.46,5.76,0,1.95-.83,3.84-3.52,4.64v.06c3.07.71,3.4,2.87,3.4,4.91v4.08h-5.67v-4.08c0-2.01-.77-2.93-3.19-2.93h-7.03v7h-5.67v-19.45Zm12.5,9.13c2.81,0,3.81-1.03,3.81-2.54,0-1.39-1.03-2.39-4.32-2.39h-6.32v4.94h6.83Z"/><path class="cls-39" d="m255.33,308.58h18.38v4.2h-12.71v3.81h9.75v3.31h-9.75v3.93h13v4.2h-18.68v-19.45Z"/><path class="cls-39" d="m279.3,321.5h5.08c0,1.66,1.18,2.99,6.06,2.99,5.14,0,6-1.03,6-2.36,0-.8-.5-1.27-1.54-1.51-1.21-.27-4.2-.38-6.35-.5-2.57-.15-5.41-.47-7-1.3-1.42-.74-2.36-2.13-2.36-4.02,0-3.61,3.49-6.56,11.2-6.56,9.25,0,10.85,3.19,10.85,6.71h-5.08c0-1.77-1.74-2.81-5.76-2.81s-5.53.86-5.53,2.25c0,.74.41,1.18,1.24,1.45,1.06.33,3.99.44,6.18.59,2.84.18,5.26.41,6.92,1.09,1.86.77,2.93,2.31,2.93,4.17,0,3.07-1.66,6.71-11.67,6.71s-11.14-4.29-11.14-6.89Z"/><path class="cls-39" d="m307.94,308.58h18.38v4.2h-12.71v3.81h9.75v3.31h-9.75v3.93h13v4.2h-18.68v-19.45Z"/><path class="cls-39" d="m332.29,308.58h7.92l10.37,11.7h.03v-11.7h5.5v19.45h-5.62l-12.68-14.3h-.03v14.3h-5.5v-19.45Z"/><path class="cls-39" d="m369.14,312.78h-7.65v-4.2h20.98v4.2h-7.65v15.25h-5.67v-15.25Z"/><path class="cls-39" d="m387.85,308.58h18.38v4.2h-12.71v3.81h9.75v3.31h-9.75v3.93h13v4.2h-18.68v-19.45Z"/><path class="cls-39" d="m412.2,308.58h9.9c9.13,0,12.21,4.23,12.21,9.72,0,6.24-3.13,9.72-11.35,9.72h-10.76v-19.45Zm10.58,15.25c4.2,0,5.85-1.95,5.85-5.53,0-3.07-1.66-5.53-6.24-5.53h-4.52v11.05h4.91Z"/><path class="cls-39" d="m451.8,308.58h12.35c7.18,0,8.28,2.87,8.28,5.14,0,1.57-.74,3.46-3.34,4.14v.03c3.28.56,4.32,2.69,4.32,4.43,0,3.16-1.66,5.7-8.81,5.7h-12.8v-19.45Zm12.5,7.89c2.36,0,3.19-.77,3.19-2.01,0-1.12-.92-1.98-3.55-1.98h-6.47v3.99h6.83Zm.03,7.68c2.87,0,3.69-.92,3.69-2.34,0-1.06-.95-2.04-3.58-2.04h-6.98v4.37h6.86Z"/><path class="cls-39" d="m486.46,320.14l-10.55-11.56h7.57l6.3,7.06h.09l6.24-7.06h6.62l-10.58,11.56v7.89h-5.67v-7.89Z"/></g></g></svg>