<?xml version="1.0" encoding="UTF-8" standalone="no"?>
<!-- Created with Inkscape (http://www.inkscape.org/) -->

<svg
   version="1.1"
   id="svg1"
   width="119"
   height="73"
   viewBox="0 0 119 73"
   xmlns="http://www.w3.org/2000/svg"
   xmlns:svg="http://www.w3.org/2000/svg">
  <defs
     id="defs1" />
  <g
     id="g1">
    <path
       style="fill:#000000"
       d="M 24.951547,55.308891 24.237288,54.594633 V 36.703802 18.81297 l 4.25,0.307498 4.25,0.307498 v 18 18 l -3.535741,0.297592 -3.535742,0.297592 z m 6.285741,-17.880925 v -16.5 h -3 -3 v 15.833333 15.833334 l 0.666667,0.666666 0.666666,0.666667 h 2.333334 2.333333 z M 47.951547,55.308891 47.237288,54.594633 V 40.816091 27.037548 l -4.75,-0.304791 -4.75,-0.304791 v -3.5 -3.5 h 14.5 14.5 v 3.5 3.5 l -5.222856,0.301318 -5.222857,0.301318 -0.277143,14.198682 -0.277144,14.198682 -3.535741,0.297592 -3.535742,0.297592 z m 7.063198,-16.130925 0.277456,-14.25 h 4.972544 4.972543 v -2 -2 h -13 -13 v 2 2 h 5 5 v 14.566422 14.566423 l 2.75,-0.316423 2.75,-0.316422 z M 71.951547,55.308891 71.237288,54.594633 V 36.731422 18.868212 l 12.75,0.279877 12.75,0.279877 v 3.5 3.5 l -8.25,0.290442 -8.25,0.290443 v 3.417493 3.417493 l 7.75,0.292065 7.75,0.292064 v 3.5 3.5 l -7.705251,0.291259 -7.70525,0.291258 -0.29475,6.708742 -0.294749,6.708741 -3.535741,0.297592 -3.535742,0.297592 z m 6.490051,-8.130925 0.29569,-6.75 7.75,-0.292064 7.75,-0.292065 v -1.915871 -1.915871 l -7.75,-0.292065 -7.75,-0.292064 v -5 -5 l 8.25,-0.290442 8.25,-0.290443 v -1.959557 -1.959558 h -11 -11 v 16.5 16.5 h 2.45431 2.45431 z"
       id="path75" />
  </g>
</svg>
